<svg xmlns="http://www.w3.org/2000/svg" width="14" height="14" viewBox="0 0 14 14">
  <g transform="translate(-1448.848 0.291)" fill="transparent">
    <rect width="14" height="14" transform="translate(1448.848 -0.291)"/>
    <path d="M8.357,1.928a5.786,5.786,0,1,0,5.786,5.786A5.786,5.786,0,0,0,8.357,1.928Zm0,10.849a5.046,5.046,0,0,1-2-.412L8.989,9.4a.362.362,0,0,0,.091-.24V8.076a.362.362,0,0,0-.362-.362A4.718,4.718,0,0,1,6.081,6.373a.362.362,0,0,0-.256-.106H4.379a.362.362,0,0,0-.362.362V8.8a.362.362,0,0,0,.2.323l1.247.623v2.123A5.066,5.066,0,0,1,3.781,5.544H5.1a.362.362,0,0,0,.256-.106L6.8,3.992a.362.362,0,0,0,.106-.256V2.861a5.077,5.077,0,0,1,3.665.3c-.047.04-.092.081-.136.125a2.17,2.17,0,0,0,1.533,3.7l.108,0a8.492,8.492,0,0,1-.095,4.208.361.361,0,0,0-.01.059,5.047,5.047,0,0,1-3.618,1.522Z" transform="translate(1447.492 -1.005)" fill="#192547"/>
  </g>
</svg>
