<svg xmlns="http://www.w3.org/2000/svg" viewBox="0 0 182 58"><g fill="#9b308c"><path d="M16.2 29.3c0-4.1-1.5-7.9-4-10.8-2.5 2.9-4 6.7-4 10.8v28.2h7.9V29.7c.1-.2.1-.3.1-.4"/><path d="M25 12.6c-4.4 0-8.3 1.7-11.3 4.4l.1.2c1.8 2.1 3.1 4.6 3.8 7.3 1.6-2.4 4.3-3.9 7.3-3.9 4.9 0 8.8 4 8.8 8.8 0 4.9-4 8.8-8.8 8.8-2.7 0-5.1-1.2-6.7-3.1v9.6c2.1.9 4.3 1.4 6.7 1.4 9.2 0 16.7-7.5 16.7-16.7.1-9.3-7.4-16.8-16.6-16.8M67.5 34.4c-1.6 2.3-4.2 3.8-7.2 3.8-3.8 0-7.1-2.5-8.3-5.9h24.8c.2-.9.3-1.9.3-2.9 0-9.2-7.5-16.7-16.7-16.7s-16.7 7.5-16.7 16.7 7.5 16.7 16.7 16.7c7.5 0 13.8-4.9 16-11.7zm-7.2-13.9c3.5 0 6.5 2.1 8 5h-16c1.4-3 4.5-5 8-5M.6 12.6v8c2.5.4 4.7 1.8 6.1 3.9.7-2.7 2-5.2 3.8-7.3l.1-.2C8 14.5 4.5 12.9.6 12.6M137.7 35c-1.6 1.9-4.1 3.2-6.8 3.2-4.9 0-8.8-4-8.8-8.8s4-8.8 8.8-8.8c2.7 0 5.2 1.2 6.8 3.2h9c-2.3-6.5-8.5-11.1-15.8-11.1-9.2 0-16.7 7.5-16.7 16.7s7.5 16.7 16.7 16.7c7.3 0 13.4-4.6 15.8-11.1zM112.3 29.2c0-9.2-7.5-16.7-16.7-16.7S78.9 20 78.9 29.2s7.5 16.7 16.7 16.7c2.4 0 4.7-.5 6.7-1.4v-9.6c-1.6 1.9-4 3.1-6.7 3.1-4.9 0-8.8-4-8.8-8.8 0-4.9 4-8.8 8.8-8.8 4.9 0 8.8 3.9 8.8 8.8v16.1h7.9zM149.5 1.1h7.9v44.3h-7.9zM180.6 29.2c0-9.2-7-16.7-15.6-16.7-1.9 0-3.8.4-5.5 1.1v9.6c1.4-1.7 3.4-2.7 5.5-2.7 4.2 0 7.6 4 7.6 8.8v16.1h7.9z"/></g></svg>