<?xml version="1.0" encoding="utf-8"?>
<!-- Generator: Adobe Illustrator 23.0.2, SVG Export Plug-In . SVG Version: 6.00 Build 0)  -->
<svg version="1.1" id="Layer_1" xmlns="http://www.w3.org/2000/svg" xmlns:xlink="http://www.w3.org/1999/xlink" x="0px" y="0px"
	 viewBox="0 0 1920 246.9" style="enable-background:new 0 0 1920 246.9;" xml:space="preserve">
<style type="text/css">
	.st0{fill:#EE4F34;}
</style>
<g>
	<path class="st0" d="M103.5,221.8C164.9,133.1,281,91.2,386,108.3c24.7,4,65.2,15,61.4,48.1c-1.4,12.2-13.5,20.9-25.6,17.5
		c-16.2-4.6-8.4-22.8-0.5-31.1c10.5-11,24.7-17.5,38.1-24.2c13.9-7,28.1-13.5,42.4-19.5C530,87.3,559,77.5,588.4,69.4
		c119.8-32.8,245.8-36.2,369-26.8c134.4,10.3,266.7,37.3,399.4,60.3c137.4,23.9,276.7,44.1,416.5,37.7c17.3-0.8,34.6-2,51.8-3.6
		c7.6-0.7,7.7-12.7,0-12c-153.6,14.4-307.2-6.4-458.4-32.5C1224.3,67.9,1082.4,38.6,938,29.3C805.3,20.6,669,28,542.1,71
		c-30.9,10.5-61.1,23.1-90.2,37.8c-20.3,10.3-57.7,28.4-51.5,57.4c5,23.8,36.6,25.8,51.1,9.6c18.6-20.9,2.7-52-17.5-64.6
		c-24.5-15.3-58.2-17.7-86.4-18.4c-28.2-0.7-56.6,2.4-84,9.1c-54.3,13.2-105.7,41-144.3,81.6c-9.5,10-18.2,20.9-26.1,32.2
		C88.8,222.1,99.2,228.1,103.5,221.8L103.5,221.8z"/>
</g>
</svg>
