<?xml version="1.0" encoding="utf-8"?>
<!-- Generator: Adobe Illustrator 23.0.2, SVG Export Plug-In . SVG Version: 6.00 Build 0)  -->
<svg version="1.1" id="Layer_1" xmlns="http://www.w3.org/2000/svg" xmlns:xlink="http://www.w3.org/1999/xlink" x="0px" y="0px"
	 viewBox="0 0 1557.2 364.7" enable-background="new 0 0 1557.2 364.7" xml:space="preserve">
<g>
	<path d="M23.5,205.3C126.6,139.3,244.7,97.4,366.4,83.5c60.7-6.9,124.1-8.6,184.7,0.7c29.6,4.6,59.1,13.2,83.5,31.1
		c19.8,14.5,40.4,38.3,40.9,64.2c0.2,9.6-2,21.8-10.3,28c-9,6.8-19.7,1.8-24.8-7.1c-14.4-25.1,11.6-45.7,31.6-55.9
		c55-28.2,118.2-40.4,179.2-45.8c62.9-5.6,126.2-4,189.2-2.6c65.8,1.4,132.7,4.2,195.9,24.7c27.7,9,54.4,21.4,78.5,37.9
		c24.9,17,44.5,38.8,63.3,62.2c17.6,22,35.3,45.1,59,60.8c20.9,13.8,47.1,22.3,72.3,18.8c11.9-1.7,23.1-6.1,32.6-13.5
		c6.5-5,0.1-16.3-6.6-11.2c-22.8,17.6-53.3,14.6-78.1,2.5c-28.1-13.7-47.9-38.8-66.9-62.6c-19.5-24.3-39.5-47.2-65-65.4
		c-25-17.8-53.1-31.1-82.1-40.8c-66.6-22.3-137.7-24.9-207.3-26.4c-66.9-1.4-134.2-3-200.9,4.3c-32.4,3.5-64.7,9.1-96.1,17.9
		c-29.2,8.2-60.8,18.5-86.3,35.4c-20.6,13.7-36.4,36.5-25.9,61.6c8.5,20.2,34.2,29.8,50.4,11.8c15.9-17.7,12.7-44.8,3.2-64.6
		c-12.1-25.1-34.4-44.8-59-57.4c-29.3-15-62.1-20.7-94.6-23.7c-32.8-3-65.9-3.7-98.9-2.5c-129.3,4.8-257.5,40.6-370.4,103.8
		c-13.8,7.7-27.3,15.8-40.5,24.3C9.9,198.5,16.4,209.8,23.5,205.3L23.5,205.3z"/>
</g>
</svg>
