<?xml version="1.0" encoding="utf-8"?>
<!-- Generator: Adobe Illustrator 23.0.2, SVG Export Plug-In . SVG Version: 6.00 Build 0)  -->
<svg version="1.1" id="Layer_1" xmlns="http://www.w3.org/2000/svg" xmlns:xlink="http://www.w3.org/1999/xlink" x="0px" y="0px"
	 viewBox="0 0 1920 822.9" enable-background="new 0 0 1920 822.9" xml:space="preserve">
<path fill="none" stroke="#DA1F26" stroke-width="5" stroke-linecap="round" stroke-linejoin="round" stroke-miterlimit="10" d="
	M14.7,410.2c0,0,33.4,37.4,124.2,23.8c90.7-13.6,129.3-48.8,182.6-178S434,124.4,452.5,116.9c18.5-7.6,36.7-14.1,37.2-36.2
	c0.6-22.1-24.1-23-28.6,5.2s-1,28.5,2.1,28.8c3.1,0.3,3.7-20.3-8.9-29.8c-12.6-9.5-29.8-5.1-30,8.9c-0.3,14,22.7,27.9,48,27.5
	c25.4-0.4,54.8-16.6,65.6-22.6c49.8-27.5,381.2-80.2,358.6,147.1c-8.3,82.8-245.6,339-148.8,383.1c139.5,63.5,180.3-81.6,324.9-73.7
	c63.7,3.5,111.1,62.4,121.9,71.4c10.8,9.1,62.1,103.3,83,97.6"/>
</svg>
