<?xml version="1.0" encoding="utf-8"?>
<!-- Generator: Adobe Illustrator 23.0.2, SVG Export Plug-In . SVG Version: 6.00 Build 0)  -->
<svg version="1.1" id="Layer_1" xmlns="http://www.w3.org/2000/svg" xmlns:xlink="http://www.w3.org/1999/xlink" x="0px" y="0px"
	 viewBox="0 0 1920 921.5" style="enable-background:new 0 0 1920 921.5;" xml:space="preserve">
<style type="text/css">
	.st0{fill:none;stroke:#DA1F26;stroke-width:5;stroke-linecap:round;stroke-linejoin:round;stroke-miterlimit:10;}
</style>
<path class="st0" d="M14.7,410.2c0,0,33.4,37.4,124.2,23.8c90.7-13.6,129.3-48.8,182.6-178s112.5-131.6,131-139.1
	c18.5-7.6,36.7-14.1,37.2-36.2c0.6-22.1-24.1-23-28.6,5.2s-1,28.5,2.1,28.8s3.7-20.3-8.9-29.8s-29.8-5.1-30,8.9
	c-0.3,14,22.7,27.9,48,27.5c25.4-0.4,54.8-16.6,65.6-22.6c46.5-25.7,338-73.2,358.6,105c2.6,22.9-2.2,46-13.3,66.2
	c-23.4,42.3-72.7,131.4-107.8,195.4c-47.6,86.7-3.7,311,128.1,308.4c131.8-2.6,112.3-59.5,90.3-74.3c-9.7-6.5-38.9-14.9-54-8.8
	c-23.4,9.5-47.9,51.9,35.1,111.4c119.9,85.9,239.2-50.5,345.8-35.1c39.6,5.7,159.6,85.3,84.8,135.5"/>
</svg>
