<?xml version="1.0" encoding="utf-8"?>
<!-- Generator: Adobe Illustrator 23.0.2, SVG Export Plug-In . SVG Version: 6.00 Build 0)  -->
<svg version="1.1" id="Layer_1" xmlns="http://www.w3.org/2000/svg" xmlns:xlink="http://www.w3.org/1999/xlink" x="0px" y="0px"
	 viewBox="0 0 46.1 47.7" style="enable-background:new 0 0 46.1 47.7;" xml:space="preserve">
<style type="text/css">
	.st0{color: #fff; text-shadow: /* White glow */ 0 0 7px #fff, 0 0 10px #fff, 0 0 21px #fff, /* Green glow */ 0 0 42px #0fa, 0 0 82px #0fa, 0 0 92px #0fa, 0 0 102px #0fa, 0 0 151px #0fa; }
</style>
<path class="st0" d="M38.6,24.3c-1.2-2.1-2.2-4.2-2.8-6.2c-0.6,2-1.6,4.1-2.8,6.2c-2.3,4-5.1,7.1-7.6,8.6c2.5,1.5,5.3,4.6,7.6,8.6
	c1.2,2.1,2.1,4.1,2.7,6.1c0.6-1.9,1.5-4,2.7-6.1c2.3-4,5.1-7.1,7.6-8.7C43.7,31.4,40.9,28.3,38.6,24.3z"/>
<path class="st0" d="M18.5,8.7c-1.7-3-3-5.9-3.9-8.7c-0.9,2.7-2.2,5.7-3.9,8.7C7.4,14.3,3.5,18.6,0,20.8c3.5,2.2,7.4,6.5,10.6,12.1
	c1.7,2.9,3,5.8,3.9,8.5c0.9-2.7,2.2-5.6,3.9-8.5c3.3-5.6,7.2-10,10.7-12.2C25.6,18.6,21.7,14.3,18.5,8.7z"/>
</svg>
