<?xml version="1.0" encoding="UTF-8"?>
<svg id="Layer_1" data-name="Layer 1" xmlns="http://www.w3.org/2000/svg" viewBox="0 0 419.92 542.25">
  <defs>
    <style>
      .cls-1 {
        fill: #e52142;
      }
    </style>
  </defs>
  <path class="cls-1" d="m1.67,307.65c28.15,11.22,46.78,41.38,46.36,71.37-.12,8.25-1.92,16.08-4.55,23.87-3.06,9.08-6.78,18.07-7.68,27.7-.81,8.63,1.44,17.06,6.6,24.03,4.77,6.44,11.03,11.44,17.22,16.44,6.64,5.37,13.02,10.9,17.17,18.51s5.4,16.25-.29,23c-2.7,3.21-6.49,5.44-10.37,6.94s-8.12,2.81-12.21,2.3c-4.29-.54-6.97-3.73-6.73-8.04s3.3-7.63,6.97-9.64c8.24-4.51,18.78-3.83,27.57-1.55,9.42,2.45,18.18,6.86,26.8,11.29,18.05,9.28,36.44,17.24,56.12,22.41,17.05,4.48,34.99,7.46,52.62,5.16s32.57-10.08,43.26-24.05c11.53-15.07,17.98-34.14,23.5-52.08,6.04-19.61,10.28-39.73,13.78-59.93,7.31-42.25,11.8-85,13.44-127.84.67-17.44.5-35,3.02-52.31,2.28-15.6,6.75-31.66,16.96-44.04,10.96-13.29,27.01-19.24,41.9-26.87,7.5-3.84,14.8-8.3,20.8-14.28s10.88-13.83,14.34-21.88c3.65-8.49,6.22-17.49,7.87-26.57,1.75-9.6,2.34-19.58.01-29.14-2.16-8.89-7.22-16.54-11.23-24.65-3.66-7.4-6.21-15.32-2.76-23.28,2.51-5.8,7.98-11.26,14.71-8.97,3.05,1.04,4.36-3.79,1.33-4.82-6.85-2.33-13.42,1.06-17.56,6.56-4.55,6.03-6.21,13.83-4.53,21.18,2.09,9.16,7.56,17.03,11.59,25.38,4.54,9.43,5.67,19.49,4.59,29.84-1.02,9.8-3.6,19.67-7.1,28.88s-8.08,17.24-14.78,23.93c-12.66,12.65-30.62,17.54-45.61,26.68s-24.4,22.01-29.98,37.95c-5.58,15.93-6.99,33.09-7.71,49.84-.88,20.72-1.31,41.41-2.87,62.1-1.69,22.39-4.14,44.73-7.4,66.94-3.14,21.39-6.82,42.75-12.02,63.74-4.97,20.06-11.04,40.63-20.83,58.93-4.42,8.27-9.95,16.07-17.35,21.96-6.95,5.53-15.29,8.99-23.93,10.84-18.27,3.91-37.43.92-55.28-3.65-10.23-2.62-20.29-5.92-30.08-9.86-9.76-3.93-19.05-8.74-28.41-13.51-16.37-8.34-36.69-17.64-55.03-9.73-7.43,3.2-13.31,10.39-11.34,18.87s11.61,10.26,19.19,8.5,16.2-5.9,20.53-13.05c4.35-7.17,3.57-15.72.27-23.12-3.56-8-9.63-14.4-16.3-19.91s-13.71-10.53-19.02-17.29c-5.94-7.57-7.64-16.61-5.87-25.99,1.87-9.92,6.19-19.16,8.93-28.84,8.54-30.23-3.67-64.46-28.03-83.9-5.87-4.68-12.28-8.41-19.25-11.19-2.99-1.19-4.29,3.64-1.33,4.82h0Z"/>
</svg>