<?xml version="1.0" encoding="utf-8"?>

<svg version="1.1" xmlns="http://www.w3.org/2000/svg" xmlns:xlink="http://www.w3.org/1999/xlink" x="0px" y="0px" viewBox="0 0 1920 1080" style="enable-background:new 0 0 1920 1080;" xml:space="preserve">
	<style type="text/css">

.svg-main>path {
    stroke: #EE4E34;
    animation: path var(--duration) ease-in forwards;
    animation-delay: var(--delay);
}
@keyframes path {
    100% {
        stroke-dashoffset: 0;
    }
}
	</style>
	<defs>
		<clipPath id="01">
			<path d="M415.8,370c-1.9,1.4-2.5,3.3-3.6,5.2c-10.9,20.3-22.4,40-34.5,59.9c-2.7,4.4-6,8.5-9.6,12.3
			c-7.4,8.5-17,9.6-27.4,8.5c-1.6,0-3-0.5-4.7-0.8c-7.4-1.6-12-6-14.8-13.1c-3-8.2-3.8-17-3.3-25.5c2.2-37.5,10.4-73.6,20.8-109.2
			c8.8-31.2,21.9-60.5,40-87.6c7.4-10.7,15.9-20.8,26.5-28.5c6-4.1,12.3-6.3,19.4-6.8c3.6-0.3,7.1,0.3,10.4,1.6
			c4.7,2.5,5.5,4.4,2.5,8.8c-6.6,9.9-12.3,20.3-17.5,30.9c-12.6,26.8-23,54.5-30.4,82.9c-9.3,34.5-17.2,69.5-25.5,104.3
			c-0.3,1.6-1.1,3.3-0.3,5.2c1.9-0.8,2.5-2.7,3.6-4.1c10.4-15.3,19.7-31.2,29.3-47.1c10.1-16.4,20.8-32,30.4-48.7
			c1.4-2.2,3-3.6,5.2-4.7c9.6-5.2,19.2-4.9,29-0.8c6,2.7,8.5,7.9,9,14.2c0.5,7.7-0.3,15.3-1.6,23c-2.7,14.8-7.1,29.6-10.1,44.6
			c-2.2,11.5-4.9,23-4.7,35c0,2.2,0,4.1,0.5,6c1.4,3.8,3.3,4.7,6.6,3c4.1-2.2,7.7-4.7,10.9-7.7c4.7-4.1,8.8-8.2,12.6-13.1
			c8.2-10.1,16.4-20.5,24.6-30.7c1.6-1.9,3.6-4.1,5.2-6c1.4-1.1,2.7-2.2,4.4-2.5c1.4,0,2.5,0.3,3.3,1.4c1.1,1.1,0,2.2-0.5,3
			c-0.8,1.4-1.6,2.5-2.5,3.8c-7.1,10.4-14,20.8-20.8,31.2c-6,9.3-13.4,17.2-21.9,24.1c-13.7,10.7-29,12.3-45.4,8.2
			c-7.4-1.9-12.6-7.1-15.3-14.5c-2.5-5.5-3.6-11.5-3.6-17.8c-0.3-14.2,0.8-28.5,3.3-42.4c0.3-1.4,0.5-2.7,0.5-4.1
			C416,371.4,416,370.9,415.8,370z"/>
		</clipPath>

		<clipPath id="02">
			<path d="M592.5,321.6c8.8-0.3,16.4,1.6,24.1,5.7c7.7,4.1,10.7,10.4,11.2,18.6c0.5,8.5-2.2,16.4-7.1,23.3
			c-6.6,9.6-14.8,18.1-24.9,24.4c-7.9,5.2-16.7,7.9-26.3,9c-2.2,0.3-4.7,0.8-6.8,0.8c-3,0-4.7,1.4-5.2,4.4c-2.5,11.2-3,22.4,1.4,33.4
			c5.7,13.4,9.9,15.1,22.7,11.8c10.4-2.7,20-7.4,28.7-14c9.9-7.1,18.6-15.9,27.4-24.1c12.9-11.8,24.1-25.2,36.1-37.5
			c1.1-1.1,2.2-2.5,3.6-3.6c1.1-1.1,2.5-1.4,4.1-1.1c2.2,0.3,3,1.6,1.9,3.6c-0.5,1.1-1.4,1.9-2.2,2.7c-10.7,13.4-22.2,26-33.1,39.1
			c-3,3.8-6,7.4-9,10.9c-8.8,10.9-19.4,20-31.2,27.6c-10.4,6.8-22.2,10.7-34.5,10.4c-25.7,0-47.1-9.3-61-31.7
			c-6.6-10.7-8.5-22.4-6-34.8c1.9-11.8,5.5-23,10.7-33.9c5.2-10.1,12.6-18.3,21.3-25.5c12.9-10.9,28.2-17,44.6-19.2
			C586.2,321.6,589.5,321.6,592.5,321.6z M605.1,346.5c0-0.5,0-0.8,0-1.4c-0.3-5.5-1.4-5.7-6-3.6c-7.7,3.3-13.1,9-18.6,14.8
			c-8.5,9-13.4,20-17.5,31.2c-0.8,3,0,3.8,3,3c4.7-1.4,9-3.3,12.9-6c7.1-4.9,13.1-10.9,18.3-17.5C601.8,361,604.9,354.4,605.1,346.5z
			"/>
			</clipPath>

		<clipPath id="03">
			<path d="M787.9,361.5c-3.6,6.3-7.1,13.1-10.7,19.4c-8.8,15.9-17,31.7-27.1,46.5c-4.9,7.1-10.7,13.7-16.7,20
			c-6.8,7.4-15.9,10.1-25.7,9.9c-0.3,0-0.5,0-1.1,0c-17-1.4-24.6-7.4-30.1-23.8c-2.7-8.8-3.3-17.8-3.3-26.8
			c0.3-19.7,4.4-38.9,10.4-57.7c8.8-29,19.7-57.5,35-83.7c10.4-18.1,23.3-34.8,38-49.3c6.3-6,13.1-9.3,22.2-7.7
			c4.1,0.8,7.7,2.5,10.7,5.2c4.1,3.6,4.7,6,1.9,10.7c-2.7,5.5-5.7,10.7-8.8,15.9c-11.8,20.5-21.6,41.9-30.9,63.8
			c-9.9,22.7-18.3,45.7-26,69.2c-4.1,12.3-7.1,24.9-9.3,37.5c-1.4,7.9-1.6,15.9-1.1,23.8c0,1.6,0.3,3,0.5,4.7
			c0.8,3.6,1.6,3.8,4.1,1.4c1.4-1.1,2.5-2.2,3.8-3.6c8.8-9,16.4-18.9,23.3-29.6c13.1-20,26.3-39.7,38.3-60.5
			c3.3-5.5,6.3-11.2,9.9-16.7c4.4-7.1,7.1-15.3,10.1-23c10.7-27.1,24.6-52.3,39.7-76.9c4.7-7.1,10.1-14,15.6-20.5
			c3.8-4.4,7.9-6.6,13.7-6.3c2.7,0,5.5,0,8.2,0.5c5.2,1.4,6.6,3.3,6,8.8c-0.5,6-3,11.2-5.2,16.4c-10.4,26.3-22.7,51.4-32.6,77.7
			c-10.7,28.5-20.5,57.2-28.5,86.5c-3,10.7-5.5,21.6-6.6,32.8c-0.8,8.5-0.5,16.7,0.8,24.9c0.8,3.8,1.4,4.1,4.4,1.4
			c10.4-9.9,20-20.3,50.4-57.2c1.1-1.4,2.2-2.7,3.3-3.8c1.4-1.6,3.3-2.5,5.2-2.7c3.6-0.3,5.2,1.6,3.6,4.9c-2.5,6-28.5,36.7-32.3,41.6
			c-6.3,8.2-13.1,15.9-19.4,23.8c-8.2,10.4-26.3,10.9-36.1,4.1c-4.1-2.7-6.6-7.1-8.5-11.8c-4.4-11.2-6.3-22.7-6.3-34.8
			C780.8,397.9,784.1,379.9,787.9,361.5z"/>
			</clipPath>
		
		<clipPath id="04">
			<path d="M988.8,363.7c0.5,6.8-0.3,13.7-1.9,20.5c-0.8,3.8-0.5,4.1,3,5.7c8.8,3.6,17.5,3.8,26.5,2.5
			c6.3-0.8,12.3-1.9,18.1-4.9c0.5-0.3,0.8-0.5,1.4-0.5c1.1-0.3,2.2-0.3,2.7,0.8c0.5,1.1,0,1.9-0.8,2.5c-1.1,0.8-2.2,1.9-3.3,2.2
			c-7.9,3.3-15.9,6.3-24.4,7.4c-7.4,0.8-14.5-0.3-21.6-1.6c-5.2-0.8-5.2-0.8-6.8,4.1c-2.2,5.5-4.4,10.7-7.1,15.9
			c-11.5,22.4-30.7,33.4-55.6,35.3c-6.8,0.5-13.7-0.3-20.5-1.9c-22.7-5.5-36.7-28.2-36.4-46c0-18.9,3.8-36.9,14-52.8
			c15.6-24.4,37.8-38.9,67-41.9c8.2-0.8,16.4,0.8,24.1,4.4c9.6,4.4,14.5,12.3,18.1,21.6C988.3,345.7,989.1,354.4,988.8,363.7z
			 M970.7,336.6c-3-4.4-6.8-6.6-10.4-8.8c-3.8-2.7-7.4-2.5-11.2,0c-6.3,4.4-11.8,9.3-16.4,15.1c-12.6,14.8-21.6,31.2-24.6,50.6
			c-1.4,8.2-2.2,16.4-0.5,24.6c1.6,8.2,4.9,15.3,12,20c3.8,2.7,7.9,3.8,12.9,2.7c9.6-2.2,17.2-7.1,23.5-14.2
			c7.7-8.8,12.6-18.9,16.4-29.6c1.4-3.6,1.1-4.1-2.5-6.3c-4.4-3-8.5-6.6-12.3-10.4c-5.5-6-8.2-13.1-7.9-21.3
			c0.3-10.9,6.3-18.6,17-21.3C967.7,337.5,968.8,337.2,970.7,336.6z M976.8,379.9c1.4-2.7,1.4-5.7,1.9-8.8c1.1-7.1,0.8-14.2,0.8-21.1
			c0-3.6-2.2-6.6-4.9-7.1c-2.5-0.8-5.7,0.8-7.7,3.8c-0.3,0.5-0.5,1.1-0.8,1.6C961.4,358.5,966.4,373.9,976.8,379.9z"/>
			</clipPath>

		<clipPath id="05">
			<path d="M314.5,751.5c-0.3-6.6,0.8-12.9,2.2-19.2c3.8-17.5,9-34.8,16.1-51.2c2.7-6.3,6.3-11.8,10.7-16.7
			c6.8-8.2,24.4-11.2,35.3-4.7c3,1.9,4.1,4.1,3,7.9c-0.5,2.5-1.6,4.7-2.7,7.1c-7.7,20.3-15.1,40.8-20,62.4
			c-2.5,11.2-4.1,22.4-3.6,34.2c0,2.5-0.5,5.7,2.5,7.1c2.5,1.4,4.7-1.1,6.6-2.5c8.5-5.5,14.8-13.4,21.3-21.1
			c7.9-9.3,15.6-19.2,22.7-29c1.6-1.9,3-3.8,5.5-4.1c2.5-0.3,3.6,1.1,2.7,3.3c-0.5,1.4-1.4,2.5-1.9,3.6
			c-10.4,15.9-21.3,31.5-33.1,46.5c-8.2,10.4-19.2,16.4-32.8,15.6c-6-0.3-11.8-1.6-17.2-4.4c-5.5-3-9.9-7.1-12.6-12.9
			C316.1,767.1,314.5,759.7,314.5,751.5z M384.6,581c8.5,0,15.1,2.5,20.8,7.1c5.7,4.4,6.6,9,2.2,15.3c-2.7,4.1-6,8.2-9,12.3
			c-3,4.4-6,8.8-8.8,13.1c-1.6,2.7-3.8,5.5-3.6,9.3c0.3,1.9-1.4,3-3,3.3c-2.5,0.3-4.9,0-7.1-0.5c-4.9-1.4-9-4.1-12.6-7.4
			c-3-3-4.1-6.6-3.6-10.7c0.8-6.6,2.5-12.9,4.1-19.4c1.4-4.1,2.5-7.9,3.6-12c1.4-5.7,4.9-9.3,10.9-9.9
			C380.7,581.3,383.2,581,384.6,581z"/>
			</clipPath>

		<clipPath id="06">
			<path d="M447.8,577.7c0.3,2.5,0.3,4.9-0.5,7.4c-1.4,4.1-3.3,7.4-6,10.4c-4.9,5.2-9.3,10.7-13.4,16.4l-3.8,4.9
			c-1.4,1.9-3,3.8-4.4,5.5c-3,3-6.3,3.6-10.1,1.6c-1.4-0.8-2.5-1.9-2.7-2.7c-0.3-0.8-0.3-1.9,0.3-3.6c1.1-3,2.5-6.3,4.1-9.3
			c6.3-12,9.3-24.9,8.8-38.6c-0.3-2.5,0.3-4.4,1.1-5.2c0.8-0.8,2.7-1.4,5.5-1.4c6.8-0.3,12.6,2.2,17.2,6.8
			C445.9,572,447.2,574.7,447.8,577.7z"/>
			</clipPath>

		<clipPath id="07">
			<path d="M546.6,669.7c-5.5,5.7-9,12-12.6,18.1c-7.4,12.9-13.1,26.8-18.9,40.5c-4.1,9.3-8.5,18.6-12.6,27.6
			c-2.2,4.9-5.2,9.3-8.5,13.4c-3.3,4.1-7.4,6-12.9,6c-10.1-0.3-18.9-3.8-26.3-10.7c-5.7-5.2-7.9-12-8.5-19.4
			c-0.8-10.9,1.4-21.6,3.6-32.3c3.3-14,7.4-27.6,11.2-41.3c2.7-10.1,5.5-20.5,8.5-30.7c1.6-6,2.5-6.6,8.5-6.8
			c11.8-0.3,21.3,7.1,24.1,18.6c2.2,9.9,1.4,20,0,29.8c-2.2,16.4-5.7,32.3-9,48.4c-0.3,1.4-0.8,3-0.3,5.5c3.3-5.2,6-9.6,8.2-14.2
			c7.9-14.8,15.6-29.8,23.3-44.9c4.9-9.6,10.7-18.6,17.5-27.1c0.8-1.4,1.9-2.5,3-3.6c6.8-8.8,16.1-9.3,25.7-6.3
			c12.6,4.1,18.1,13.7,18.6,26.3c0.5,11.5-0.5,22.4-2.5,33.4c-1.9,10.1-4.4,20-6.8,29.8c-0.3,1.4-1.1,2.5,0,4.1
			c1.4-1.4,2.2-3,3.3-4.7c12.6-22.2,26-43.8,37.5-66.8c2.2-4.7,5.2-8.8,7.4-13.4c3.3-7.1,9.3-8.8,16.4-8.2c14.8,1.9,23,9.9,24.1,24.4
			c0.5,8.5-0.3,16.7-2.5,24.6c-5.7,22.2-11.5,44.3-17.2,66.5c-0.8,3.6-1.6,7.4-2.2,10.9c-0.3,1.1-0.3,2.5,0,3.6
			c0.8,4.7,4.7,6.6,9,4.4c7.7-4.4,14.2-10.1,20-17c12.3-14.8,24.4-29.8,35.6-45.7c1.4-1.9,2.7-3.6,5.2-3.8c2.2,0,3.6,1.6,2.7,3.6
			c-0.5,1.9-1.4,3.6-2.5,5.2c-9.3,15.9-19.4,31.2-31.2,45.4c-5.7,6.8-12,12.9-19.7,17.5c-7.1,4.4-14.8,5.7-23,3.6
			c-8.2-2.2-15.6-6-21.9-11.5c-6.6-5.7-9.3-13.1-9.9-21.6c-0.5-10.1,1.1-20.3,3.6-30.1c3-12.6,7.1-24.9,11.2-36.9
			c1.4-4.4,2.5-8.8,3.3-13.1c-1.9,0.5-2.5,2.2-3.6,3.6c-7.1,11.2-14,23-19.7,35.3c-7.7,15.6-15.3,31.2-22.7,46.5
			c-2.2,4.7-4.9,8.8-8.2,12.3c-2.5,3-5.5,4.7-9.3,4.7c-10.1,0.5-19.2-2.5-26.5-9c-6.6-5.5-7.7-13.4-8.2-21.3
			c-0.3-5.7,0.5-11.5,1.4-17.2c3-17,7.4-33.4,13.1-49.5c0.5-1.4,0.8-3,1.4-4.4C546.8,671.3,546.8,671.1,546.6,669.7z"/>
			</clipPath>

		<clipPath id="08">
			<path d="M818,757c1.9-0.3,3.3-1.9,4.7-3c16.7-12,33.4-24.4,50.4-35.9c1.9-1.4,4.1-2.5,6.3-3.6c2.2-1.1,4.7-1.1,6.8,0
			c2.5,1.4,2.7,3,0.8,4.9c-1.6,1.9-3.6,3.6-5.7,4.9c-4.4,3-8.5,6.8-12.6,10.1c-16.1,12.3-31.5,25.5-47.1,38.3
			c-2.5,1.9-4.9,4.4-7.4,6.8c-1.6,1.4-2.2,3.3-3,5.2c-2.5,7.4-3.3,15.1-5.2,22.7c-4.4,19.4-8.8,38.9-16.1,57.2
			c-4.9,12.3-10.4,24.4-18.6,34.8c-6.6,8.2-14.2,15.6-24.9,18.6c-8.2,2.7-16.4,3-24.9,0c-8.5-2.7-11.8-7.1-12.3-15.9
			c-0.5-6.6,1.1-12.9,3-18.9c4.1-11.8,10.9-21.9,17.2-32.3c7.9-13.1,18.3-24.4,27.6-36.4c1.9-2.7,3.3-5.7,4.1-9
			c4.9-29,10.9-58,19.2-86.5c4.4-15.3,9.9-30.4,18.1-44.3c4.1-6.8,9.3-13.1,15.9-17.8c6.8-4.7,14.2-5.5,21.9-3.6
			c1.9,0.5,3.8,1.6,5.5,3c2.7,2.2,3.3,3.8,1.6,6.8c-13.4,28.2-18.3,58.8-25.2,88.9C817.8,753.7,816.9,755.1,818,757z M754.3,841.3
			c-3.8,5.2-7.7,9.9-11.2,14.8c-7.9,11.5-14.8,23.5-17,37.8c-0.5,3-0.5,6,0.3,9c0.5,1.9,0.5,4.7,2.7,4.9c2.2,0.5,3.3-1.9,4.7-3.3
			c4.7-5.7,7.4-12.6,10.1-19.4c5.2-11.8,7.4-24.4,9.9-36.7C754,846.2,754.8,844.3,754.3,841.3z M818.6,606.5
			c0.3-9.3,2.2-18.9,2.5-28.2c0-4.1,2.2-6.8,6.3-8.5c10.1-3.8,20-3,29.3,2.2c6,3.6,7.7,8.5,4.4,14.5c-2.2,4.4-5.2,8.2-7.4,12.3
			c-3.8,7.4-8.5,14.8-9.9,23.3c-0.5,2.2-2.2,3.3-4.4,3.6c-7.4,0.8-13.4-1.6-18.3-6.8C818,615.2,818.9,610.9,818.6,606.5z"/>
			</clipPath>

		<clipPath id="09">
			<path d="M868.1,751.5c-0.3-6.6,0.8-12.9,2.2-19.2c3.8-17.5,9-34.8,16.1-51.2c2.7-6.3,6.3-11.8,10.7-16.7
			c6.8-8.2,24.4-11.2,35.3-4.7c3,1.9,4.1,4.1,3,7.9c-0.5,2.5-1.6,4.7-2.7,7.1c-7.7,20.3-15.1,40.8-20,62.4
			c-2.5,11.2-4.1,22.4-3.6,34.2c0,2.5-0.5,5.7,2.5,7.1c2.5,1.4,4.7-1.1,6.6-2.5c8.5-5.5,14.8-13.4,21.3-21.1
			c7.9-9.3,15.6-19.2,22.7-29c1.6-1.9,3-3.8,5.5-4.1c2.5-0.3,3.6,1.1,2.7,3.3c-0.5,1.4-1.4,2.5-1.9,3.6
			c-10.4,15.9-21.3,31.5-33.1,46.5c-8.2,10.4-19.2,16.4-32.8,15.6c-6-0.3-11.8-1.6-17.2-4.4c-5.5-3-9.9-7.1-12.6-12.9
			C869.8,767.1,868.1,759.7,868.1,751.5z M938.2,581c8.5,0,15.1,2.5,20.8,7.1c5.7,4.4,6.6,9,2.2,15.3c-2.7,4.1-6,8.2-9,12.3
			c-3,4.4-6,8.8-8.8,13.1c-1.6,2.7-3.8,5.5-3.6,9.3c0.3,1.9-1.4,3-3,3.3c-2.5,0.3-4.9,0-7.1-0.5c-4.9-1.4-9-4.1-12.6-7.4
			c-3-3-4.1-6.6-3.6-10.7c0.8-6.6,2.5-12.9,4.1-19.4c1.4-4.1,2.5-7.9,3.6-12c1.4-5.7,4.9-9.3,10.9-9.9
			C934.3,581.3,936.8,581,938.2,581z"/>
			</clipPath>

		<clipPath id="10">
			<path d="M1066.2,710.7c-4.1,6.8-7.9,13.1-11.8,19.4c-7.7,12.3-14.2,25.2-22.7,36.7c-3.8,4.9-7.4,9.9-12,14
			c-5.7,5.5-12.6,7.7-20.8,7.4c-10.1-0.5-18.9-3.8-26.5-10.1c-7.1-6-11.8-13.7-14-22.7c-2.7-10.7-2.2-21.3-0.8-32.3
			c1.9-17,6.6-33.4,12.3-49.5c3.3-8.8,7.7-17,12.3-24.9c6-9.9,16.4-13.4,27.1-9c1.1,0.3,2.2,0.8,3.3,1.4c8.5,4.7,10.4,8.8,8.8,18.3
			c-1.6,8.2-4.9,15.9-7.4,23.8c-6,18.3-10.4,36.9-14,55.6c-1.4,8.2-2.5,16.1-0.5,24.4c0.5,2.7,1.4,5.5,2.7,8.2c1.4,2.7,2.2,3,4.7,1.1
			c4.7-3.6,8.8-7.9,12.6-12.3c5.7-7.1,10.7-14.5,15.6-22.2c7.9-12.3,17-24.1,25.5-36.1c4.1-5.7,8.5-11.5,12.6-17
			c3.6-4.7,5.2-9.9,7.4-15.1c3-7.9,7.4-15.3,12.9-21.9c9.3-11.2,23.3-5.2,27.9,2.7c1.6,2.7,1.9,5.2,0.5,8.2
			c-2.7,6.3-5.2,12.6-6.6,19.2c-1.6,9.9-3,19.7-4.7,29.6c-1.9,12.3-3,24.6-5.2,36.7c0,0.8,0,1.4,0.3,2.2c1.4,0.3,1.9-0.8,2.7-1.6
			c15.6-12.9,31.5-25.5,48.2-37.2c1.4-0.8,2.7-1.6,4.4-2.5c1.9-0.8,3.6-0.5,5.2,0.8c1.6,1.4,1.9,2.7,0.3,4.4
			c-0.3,0.5-0.8,0.8-1.4,1.1c-16.4,13.4-32.6,27.4-48.4,41.3c-4.1,3.6-7.9,7.4-12,10.9c-1.9,1.9-2.7,4.4-3.3,6.8
			c-2.5,15.1-5.2,30.1-8.8,44.9c-2.5,10.4-5.5,20.8-8.8,31.2c-3.3,11.2-7.7,22.2-13.1,32.6c-8.5,15.3-18.3,29.3-33.7,38.3
			c-6.6,4.1-13.1,7.1-21.1,6.6c-5.2-0.3-9.9-2.2-13.7-5.5c-6-5.5-6-12.3-5.7-19.4c0-10.1,3.6-19.4,7.9-28.5
			c9.3-19.7,21.3-37.5,35-54.2c2.2-2.5,4.4-5.2,6.6-7.7c1.4-1.9,2.5-4.1,2.7-6.6c3.3-18.1,6.3-36.4,9.9-54.5
			c2.2-10.9,5.2-22.2,7.7-33.1C1066.5,713.8,1067.3,712.7,1066.2,710.7z M1044.4,827.3c-0.8,0.3-1.1,0.3-1.4,0.5
			c-10.7,13.4-20,27.6-27.6,43c-3,6.3-6,12.6-7.1,19.4c-1.1,7.1-1.9,14.2,0.8,21.1c1.4,3,2.5,3.3,4.9,1.1
			c7.1-6.3,12.6-13.7,16.1-22.4c7.4-19.2,10.9-39.4,14.5-59.4C1044.9,829.5,1045.2,828.4,1044.4,827.3z"/>
			</clipPath>

		<clipPath id="11">
			<path d="M1310.9,734.6c0-3,0-5.7,0.3-8.8c-3.6,1.1-7.4,1.9-11.2,2.5c-7.4,0.5-14.5,0-21.6-1.6h-0.3
			c-1.6-0.3-2.7-0.5-3.6-0.5c-0.8,0.3-1.4,0.5-1.6,1.1c-0.3,0.8-0.8,1.9-1.4,3.6c-1.9,5.5-4.4,10.7-7.1,15.9
			c-12,21.9-30.7,33.7-55.6,35.3c-6.8,0.5-13.7,0-20.5-1.9c-11.5-3.3-20.5-9.6-26.8-18.6c-6.3-9-9.6-18.1-9.6-27.4
			c-0.3-19.2,4.4-36.7,14-52.8c15.6-24.6,37.8-38.6,67-41.9c8.5-0.8,16.4,0.8,24.1,4.4c9,4.7,15.1,12,18.1,21.6
			c3,8.5,4.1,17.5,3.6,26.8c0.3,6.8-0.3,13.7-1.9,20.5c-0.3,1.9-0.3,3,0,3.6c0.3,0.8,1.4,1.4,3,2.2c8.5,3.6,17.5,4.4,26.5,2.5
			c1.9-0.3,3.8-0.5,5.5-0.8c1.6-10.7,5.5-20.8,11.2-30.4c13.1-21.1,32-32.8,56.6-35.6c7.4-0.8,14.2,0.5,20.8,3.6
			c7.7,4.1,12.6,10.1,15.1,18.6c2.5,7.4,3.6,14.8,3.3,22.7c0.3,5.7-0.3,11.5-1.6,17.2c-0.3,1.6-0.3,2.7,0,3.3
			c0.3,0.5,1.1,1.1,2.5,1.6c7.4,3,14.8,3.6,22.4,2.2c5.5-0.5,10.7-1.9,15.3-4.1c0.5-0.3,1.1-0.3,1.4-0.5c0.3,0,0.8,0,1.4,0
			c0.3,0,0.5,0.3,0.8,0.8c0.3,0.3,0.5,0.8,0.3,1.1c-0.3,0.3-0.5,0.8-0.8,1.1c-0.8,0.8-1.9,1.4-3,1.9h-0.3c-6.3,3-13.1,4.9-20.3,6
			c-6.3,0.5-12.3,0-18.3-1.4h-0.3c-1.4-0.3-2.2-0.3-2.7-0.3c-0.8,0-1.4,0.3-1.6,0.8c-0.3,0.5-0.8,1.6-1.4,3c-1.6,4.7-3.6,9-5.7,13.4
			c-10.1,18.9-26,28.7-47.3,30.1c-5.7,0.3-11.8-0.3-17.5-1.6c-9.9-2.7-17.5-7.9-22.7-15.6C1313.6,750.4,1310.9,742.5,1310.9,734.6z
			 M1260.6,665c-2.7-3.6-5.7-6.3-9.3-8.2l-1.1-0.5c-3.8-2.5-7.7-2.5-11.2,0c-6.3,4.4-11.8,9.3-16.4,15.1
			c-12.9,14.5-21.1,31.5-24.6,50.6c-1.6,8.2-1.9,16.4-0.5,24.6c1.4,8.5,5.2,15.1,12,20c3.8,2.7,8.2,3.6,12.9,2.7
			c9.6-2.5,17.2-7.1,23.5-14.2c7.4-8.8,12.9-18.6,16.4-29.6c0.8-1.6,1.1-2.7,0.8-3.6c-0.3-0.8-1.4-1.6-3.3-2.7
			c-4.7-3-8.8-6.3-12.3-10.4c-5.5-6-8.2-13.1-7.9-21.3c0.3-11.2,6-18.3,17-21.3c0.5-0.3,1.4-0.3,2.2-0.5
			C1259.2,665.3,1259.7,665.3,1260.6,665z M1266.6,708.3c0.8-2.2,1.4-4.4,1.6-6.6c0-0.8,0-1.4,0.3-2.2c0.8-6.3,1.1-12.9,0.8-19.4
			v-1.6c-0.3-1.9-0.8-3.3-1.6-4.7c-0.8-1.4-1.9-2.2-3.3-2.5c-2.7-0.5-5.2,0.8-7.7,3.8c-0.3,0.5-0.5,1.1-0.8,1.6
			c-2.5,5.2-2.5,10.9-0.3,17.2C1257.5,700.4,1261.4,705,1266.6,708.3z M1403.1,676c-2.5-3-4.9-5.5-7.7-7.1l-1.1-0.5
			c-3-1.9-6.3-1.9-9.6,0.3c-5.2,3.6-9.9,7.9-14,12.6c-10.9,12.3-17.8,26.8-20.8,43c-1.4,7.1-1.6,14.2-0.5,21.1
			c1.1,7.1,4.4,12.9,10.1,17c3.3,2.5,6.8,3.3,10.9,2.5c7.9-1.9,14.8-6,20-12.3c6.3-7.4,11.2-15.9,14.2-25.2c0.5-1.4,0.8-2.2,0.5-3
			c-0.3-0.5-1.4-1.4-2.7-2.2c-3.8-2.5-7.4-5.5-10.4-9c-4.7-4.9-7.1-10.9-6.8-18.1c0.3-9.6,5.2-15.3,14.2-17.8l2.2-0.5
			C1402,676.3,1402.6,676.3,1403.1,676z M1408.3,712.7c0.8-1.9,1.1-3.8,1.4-5.7c0-0.5,0-1.1,0.3-1.6c0.8-5.5,1.1-10.9,0.8-16.4
			c-0.3-0.5-0.3-1.1-0.3-1.6c0-1.4-0.3-2.7-1.1-3.8c-0.8-1.1-1.6-1.9-2.7-2.2c-2.5-0.3-4.7,0.8-6.6,3.3c-0.3,0.5-0.5,1.1-0.8,1.6
			c-1.9,4.4-2.2,9.3-0.3,14.5C1400.9,705.8,1404,709.9,1408.3,712.7z"/>
			</clipPath>

		<clipPath id="12">
			<path d="M1486.1,729.4c8.2-10.1,15.6-20.5,22.4-30.9c10.9-17,23-33.1,36.1-48.4c3.8-4.7,8.5-8.5,13.7-12
			c14.2-9.6,35.6,0,37.2,17.8c0.5,7.4-0.8,14.5-2.2,21.6c-5.2,24.9-12,49.3-18.9,73.3c-1.6,5.7-2.7,11.2-2.7,17c0,6.3,3,9.3,9.3,7.9
			c4.9-0.8,9.6-3,14-6c8.2-6,15.3-13.4,21.9-21.1c8.2-9.9,16.4-19.7,24.9-29.6c1.4-1.6,2.5-3.3,4.4-4.1c1.6-0.5,3-0.5,4.4,0.5
			c1.1,1.4,0.3,2.5-0.5,3.8c0,0.3-0.3,0.5-0.5,0.8c-10.4,13.1-20,27.1-31.5,39.1c-7.9,8.2-16.1,16.7-26.5,21.9
			c-6.8,3.8-14,4.7-21.6,3.3c-21.1-4.1-33.4-19.4-36.7-39.1c-1.4-8.2,0-16.1,1.9-24.1c4.4-18.1,10.7-35.3,18.3-52.3
			c1.1-2.2,1.9-4.1,2.7-6.6c-2.5,1.4-3.8,3.3-5.5,5.2c-12,14.2-21.9,29.8-32,45.4c-9.6,14.8-19.4,29.3-29.3,44.1
			c-2.7,4.1-6,7.7-9,11.5c-3.8,5.2-9.3,7.1-15.6,5.7c-1.6-0.3-3.3-0.8-4.9-1.1c-13.4-4.1-19.2-12.3-18.6-26
			c0.3-11.5,3.3-22.4,6.6-33.4c5.2-17.2,11.2-34.5,15.3-52c1.9-7.9,3.6-15.9,5.2-23.8c1.4-5.7,2.7-6.8,8.2-7.1
			c9.6-0.3,21.9,7.4,23,19.2c1.1,8.5,1.1,17.2,0,25.7c-1.9,16.7-6.8,32.6-12.3,48.2c-0.5,1.4-0.8,3-1.4,4.4
			C1485.8,728.3,1486.1,728.5,1486.1,729.4z"/>
			</clipPath>
	</defs>
	
	
	<!-- <g class="svg-bg"> -->
	<g class="svg-bg">
	 	<path clip-path="url(#01)" d="M440.2,480.7c-4.8,0-9.6-0.8-14.2-2.4c-8.1-2.8-22.7-10.8-28.6-32.5c-0.5-1.8-0.9-3.7-1.3-5.7c-9.1,9.9-19.6,17-32.3,19.3
			c-14.6,2.6-29-1.7-40.6-12.2c-22.8-20.6-18-55.6-12.4-80.1c5-21.7,14.2-49.3,27.3-81.9c21.8-54,47.1-103.6,48.2-105.7
			c8.5-16.7,29-23.4,45.7-14.8c16.7,8.5,23.4,29,14.8,45.7c-0.3,0.6-21.1,41.4-40.4,87.4c-1.2,2.9-2.4,5.7-3.5,8.4
			c6-4.3,13.6-7.6,22.9-7.8c2.8-0.1,5.1-0.2,7.2-0.3c8-0.5,24.8-1.4,36.6,13.7c11.9,15.2,6.9,31.2,4.2,39.8
			c-1.6,5.2-4.1,13-6.3,25.3c3.3-4.3,6.4-8.7,9.4-12.9c10.6-15.5,31.8-19.4,47.3-8.8c15.5,10.6,19.4,31.8,8.8,47.3
			c-0.5,0.8-13.3,19.3-28.8,37.2c-10,11.5-19,20.2-27.4,26.6C464.3,475.9,452,480.7,440.2,480.7z"/>
	
		<path clip-path="url(#02)" d="M575.9,488.8c-21,0-40.5-7.8-56.8-22.9c-22.2-20.5-27.4-51.3-14.4-84.6c15.8-40.3,58.8-83.5,97.6-83.6c0,0,0,0,0,0
			c21.3,0,38.8,12.1,46.8,32.5c3.7,9.4,5.1,19.1,4.3,28.6c11.2-6.1,25.4-5.7,36.4,2.4c15.2,11.1,18.5,32.3,7.4,47.5
			c-16.2,22.3-59.7,74.6-112.9,79.8C581.4,488.6,578.6,488.8,575.9,488.8z"/>
	
		<path clip-path="url(#03)" d="M807.4,489.2c-3.3,0-5.7-0.3-7-0.5c-0.8-0.1-1.7-0.3-2.5-0.5c-20-4.5-35.2-17.1-42.8-35.5c-14.8,13.7-32.1,24.9-50.9,24.9
			c-4.1,0-8.4-0.5-12.6-1.7c-13.8-3.8-24.6-13.4-30.2-27c-7-17-5.6-39.1,4.7-71.5c6.4-20,16.3-44.5,29.6-72.9
			c22.1-47.2,45.8-88.9,46.8-90.6c9.3-16.3,30-22,46.4-12.7c16.3,9.3,22,30,12.7,46.4v0c-0.2,0.4-21.3,37.5-41.3,79.6
			c-6,12.5-10.9,23.6-15.1,33.3c10.4-13.9,22.8-31.5,37.4-54c6.3-9.7,12.4-19.3,18.1-28.5c21.5-39.7,41.9-70.8,42.8-72.3
			c10.1-15.3,30.4-19.8,46-10.4c15.6,9.5,21,29.6,12.1,45.6c-1,1.8-18.2,32.6-42.1,71.2c-2.5,4.6-5,9.3-7.4,14.1
			c-25.8,50.3-32.5,77.3-34.1,90.3c6.5-4.2,15.4-12.3,25.4-27.6c10.3-15.7,31.3-20.2,47-9.9c15.7,10.3,20.2,31.3,9.9,47
			c-17.8,27.4-38.4,46.2-61.1,56C825.8,488,814.5,489.2,807.4,489.2z M807.3,421.3C807.3,421.3,807.3,421.3,807.3,421.3
			S807.3,421.3,807.3,421.3z"/>
	
		<path clip-path="url(#04)" d="M915.7,480.3c-21.2,0-40.3-11.1-52.8-30.8c-12.4-19.6-16.1-41.6-10.7-63.7c11.1-45.6,56.3-84,72.8-86.9c17-3,28.5,0,33,0
			c18.5,0.2,34.9,1.4,45.2,16.8c8.3,12.5,12.5,27.2,12.5,43.3c1.2,1.4,2,2.4,3.2,3.8c17.5,2.7,30.2,18.4,28.8,36.3
			c-1.5,18.7-17.9,32.7-36.6,31.2c-5.5-0.4-10.6-1-15.6-1.6c-1.5-0.2-2.9,0.5-3.7,1.7c-16.5,24.6-42.5,48.3-73.2,49.8
			C917.6,480.3,916.7,480.3,915.7,480.3z M925.2,399.7c-2-2.4-5.9-1.6-6.7,1.4c-0.1,0.3-0.2,0.6-0.2,0.9c0,0,0,0.1,0,0.1
			c-0.9,3.7,3.6,6.2,6.4,3.6c0.2-0.2,0.4-0.4,0.5-0.5c1.4-1.4,1.5-3.7,0.2-5.3C925.3,399.8,925.3,399.8,925.2,399.7z"/>
	
		<path clip-path="url(#05)" d="M383.5,672.5c-7.9,0-16.5-2.5-24.9-9.2c-14.7-11.6-17.2-32.9-5.7-47.6c-0.5-3.6-1.1-7.3-1.7-10.3
			c-3.8-18.4,8-36.4,26.4-40.2c18.4-3.8,36.4,8,40.2,26.4c0.2,1.1,2.2,10.8,3.3,21.5c1.3,12,4.2,40-18.1,53.8
			C397.7,670.2,390.9,672.5,383.5,672.5z"/>
	
		<path clip-path="url(#05)" d="M336.9,822.8c-19.5,0-35.7-9-44.5-24.7c-12-21.4-8.3-50.6,12-94.5c11.7-25.5,25.2-47.4,25.7-48.3
			c9.9-16,30.8-21,46.8-11.1c16,9.9,21,30.8,11.1,46.8c-0.3,0.5-9.9,16.2-19,35.1c-2.3,4.7-4.2,8.9-5.8,12.7
			c0.5-0.8,26.6-16.9,36.9-20.7c23.6-8.8,30.2,25.8,22.8,49.9c-1.5,4.9-3.6,9.4-6,12.7c-0.7,0.9-1.4,1.9-2.1,2.8
			C395.1,808.8,367.4,822.8,336.9,822.8z"/>
	
		<path clip-path="url(#06)" d="M424.8,640.5c-13.5,0-26.3-8.1-31.6-21.4c-3.8-9.5-3-19.8,1.4-28.3c-0.3-3.1-0.9-7-1.4-9.7c-4-18.4,7.7-36.4,26-40.4
			c18.3-4,36.4,7.7,40.4,26c0.2,1,2.1,9.9,2.8,19.6c0.6,7.3,0.4,13.5-0.5,19.1c-3.6,21.9-18.3,30-24.5,32.5
			C433.3,639.7,429,640.5,424.8,640.5z M412.1,575C412.1,575,412.1,575,412.1,575C412.1,575,412.1,575,412.1,575z M412.2,574.9
			C412.2,575,412.2,575,412.2,574.9C412.2,575,412.2,575,412.2,574.9z"/>
	
		<path clip-path="url(#07)" d="M642.9,806.6c-4.8,0-9.5-0.8-14.2-2.5c-15-5.5-24.9-19-26.6-36.1c-0.1-0.6-0.1-1.2-0.1-1.8c-7.9,10.1-20.4,24.9-39.7,24.9
			c-0.9,0-1.8,0-2.7-0.1c-10.9-0.8-20.8-6.3-27.1-15.1c-4.5-6.2-6.7-12.7-7.4-20c-2.5,3-4.9,5.7-7.3,8.2
			c-16.9,17.3-34.4,23.9-52.3,19.8c-11.7-2.7-21.6-10.2-27.8-21.1c-9.6-16.8-10.1-40.6-1.9-79.4c4.8-22.8,11.1-42.7,11.4-43.5
			c5.7-17.9,24.8-27.8,42.7-22.1c13.1,4.1,21.9,15.5,23.5,28.3c3.3-3.6,7.4-6.4,12-8.3c11.2-4.6,39.7-13.6,61.9,1.3
			c4,2.7,7.4,5.9,10.3,9.6c4.1-5.4,9.8-9.5,16.3-11.7c13.1-4.4,45.9-12.4,67,7.7c5.9,5.6,18.7,21.4,11.3,47.9
			c-0.7,2.4-1.4,4.9-2.3,7.5c13.9-12.3,35.1-11.3,47.7,2.4c12.7,13.8,11.8,35.3-2.1,48c-0.6,0.6-15.6,14.2-32.7,27.4
			C680.4,795,661.1,806.6,642.9,806.6z"/>
	
		<path clip-path="url(#08)" d="M841.5,647.8c-2.4,0-4.8-0.2-7.3-0.6c-18.5-3.3-30.8-20.9-27.6-39.4c0.6-3.2,1.6-6.2,2.9-9c-0.3-0.8-0.6-1.6-0.8-2.2
			c-7.2-17.3,1-37.2,18.4-44.4c17.3-7.2,37.2,1,44.4,18.4c0.3,0.8,3.3,7.9,5.5,16.2c2,7.3,8.1,29.6-5.8,46.9
			C863.9,642.7,853.2,647.8,841.5,647.8z M812.2,607.8L812.2,607.8L812.2,607.8z"/>
	
		<path clip-path="url(#08)" d="M728.6,953.8c-8.8,0-17.5-2.3-25.5-6.9c-23.2-13.3-32.5-38.4-24.8-67.2c8-29.8,35.1-68.2,80.8-114.1
			c3.2-3.2,6.5-6.5,9.8-9.7c11.3-46.9,18.2-87.2,18.3-87.6c3.2-18.5,20.7-31,39.2-27.8c18.5,3.2,31,20.7,27.8,39.2
			c-0.1,0.8-1.3,7.4-3.3,18.2c0.5,0,1,0,1.5,0c18.8,0,34,15.2,34,34c0,14.9-9.5,27.5-22.9,32.1c-5.6,3.6-18.2,13.8-33.5,27.8
			c-0.4,1.5-0.8,3.1-1.2,4.6c-9.3,35.4-18.9,64.8-28.5,87.5c-15.2,35.8-30.5,55.8-49.8,64.9C743.4,952.2,736,953.8,728.6,953.8z
			 M852.4,766C852.4,766,852.3,766,852.4,766C852.3,766,852.4,766,852.4,766z M852.4,766C852.4,766,852.4,766,852.4,766
			C852.4,766,852.4,766,852.4,766z"/>
	
		<path clip-path="url(#09)" d="M932.9,661.1c-4.1,0-8.2-0.7-12.2-2.3c-10.3-3.9-18.2-11.8-22.2-22.2c-6.1-15.6-1.6-32.5,2.4-43.8
			c3.1-8.9,6.7-16.2,7.1-17c8.2-16.9,28.6-23.9,45.5-15.7c16.9,8.2,23.9,28.5,15.7,45.4l0,0c-1.5,3.1-3,6.9-4.1,10.1
			c2.7,7.4,2.8,15.8-0.3,23.7C959.4,652.8,946.5,661.1,932.9,661.1z M945.1,595.4C945.1,595.4,945.1,595.4,945.1,595.4
			C945.1,595.4,945.1,595.4,945.1,595.4z"/>

		<path clip-path="url(#09)" d="M905.4,817.3c-18.1,0-33.4-8.3-42.1-22.8c-11.8-19.5-10-45.7,5.6-85.1c8.9-22.4,19.4-41.6,19.9-42.4
			c9.1-16.4,29.7-22.4,46.2-13.4c16.4,9.1,22.4,29.7,13.4,46.2l0,0c0,0.1-1.5,2.7-3.6,6.9c5.2-1.8,10.8-2.4,16.6-1.4
			c18.5,3,31.1,20.5,28.1,39c-4.1,24.8-26.6,71.8-82.9,72.9C906.2,817.3,905.8,817.3,905.4,817.3z"/>
	
		<path clip-path="url(#10)" d="M1023.3,951.8c-13.5,0-26.3-6.9-35.3-19.4c-16.7-23.3-14.9-55,5.2-94.3c8.1-15.7,18.4-31.6,29.2-46.3
			c-12,3.9-24.1,4.9-36.2,2.9c-28.7-4.8-39.9-23.1-44-33.6c-8.4-21.4-3.4-48.1,15.2-81.9c11.1-20.1,23.6-36.4,24.1-37
			c11.5-14.9,32.8-17.7,47.7-6.2c14.9,11.5,17.7,32.8,6.2,47.7c-0.4,0.5-8.5,11.2-16.3,24.6c-2.7,4.7-4.9,8.8-6.6,12.3
			c6-4.7,13.6-12.2,22.6-23.9c16.2-21.3,27.3-44.2,27.4-44.4c7.2-15.2,24.5-22.8,40.6-17.9c16.1,4.9,26.2,20.9,23.7,37.5
			c-0.1,0.7-0.8,5.2-2,12.7c7.1-4.3,13.9-6.5,21.4-6.5c18.8,0,34,15.2,34,34c0,14.5-9,26.8-21.8,31.7c-8.4,6.1-30.9,27.3-54.6,54.7
			c-7.7,36.1-15.3,65.4-22.5,87.3c-11.5,34.6-24.1,58.9-48.5,64.8C1029.8,951.4,1026.5,951.8,1023.3,951.8z M1146.5,746
			C1146.5,746,1146.5,746,1146.5,746C1146.5,746,1146.5,746,1146.5,746z M997.2,727.5L997.2,727.5L997.2,727.5z"/>
	
		<path clip-path="url(#11)" d="M1205.9,798.9c-15.2,0-29.8-4.2-42.6-12.4c-16.7-10.8-26.5-27.2-27.4-46.3c-1.2-25.3,13.2-53.5,44.2-86.2
			c19.5-20.6,39.1-36.2,39.9-36.8c14.7-11.6,36.1-9.2,47.8,5.6c0.5,0.6,0.9,1.2,1.4,1.9c3.7,1.9,7.1,4.5,10,7.7
			c15.6,17.5,24.5,37.5,26.1,58.6c1.9,0.3,3.9,0.7,6,1c18.6,2.9,31.3,20.2,28.4,38.8c-2.9,18.6-20.2,31.3-38.8,28.4
			c-5.3-0.8-10.4-1.8-15.3-2.8c-1.5,2-3.1,4-4.7,5.9c-13.9,16.3-32.3,28.2-51.9,33.5C1221.3,797.8,1213.5,798.9,1205.9,798.9z
			 M1216.4,715.8c-5.1,6.5-8.2,11.5-10,15c4.9-0.1,10.8-2.5,16.2-6.6C1220.3,721.6,1218.2,718.7,1216.4,715.8z"/>
	
		<path clip-path="url(#11)" d="M1370.2,809.3c-14.5,0-29.7-3.7-45.3-11.1c-38.5-18.3-44.6-45.1-44.8-59.5c-0.4-26.4,16.3-51.8,51.1-77.7
			c20.9-15.6,41.8-26.3,42.7-26.8c7.3-3.7,15.2-4.6,22.6-3c0.2,0,0.4-0.1,0.6-0.1c10.3-2,21,0.9,29,7.8c17.1,15,27.5,37.6,29.4,63.8
			c11.4,5.4,19.3,16.9,19.4,30.4c0.2,18.8-14.8,34.2-33.6,34.4c0,0-0.1,0-0.1,0c-0.9,1.5-1.8,3-2.7,4.4
			c-11.6,17.7-28,29.7-47.3,34.8C1384.3,808.4,1377.3,809.3,1370.2,809.3z M1350.7,735c0.9,0.5,2,1.1,3.4,1.7
			c10.5,5,16.8,5.3,20.8,3.8c-1.3-1.7-2.5-3.4-3.6-5.1c-2.9-4.6-5.1-9.4-6.6-14.3C1357.6,727,1353.2,731.7,1350.7,735z"/>
	
		<path clip-path="url(#12)" d="M1576.2,809.4c-1.8,0-3.6,0-5.4-0.1c-22.7-1.1-38.8-9.3-47.7-24.3c-3.5-5.9-5.6-12.4-6.2-19.4c-0.1-1.2-1.6-1.7-2.4-0.8
			c-18,20.4-32.8,28.7-48.9,28.7c-13.2,0-25.1-6.2-32.7-17c-11.7-16.6-11.6-40.5,0.3-85.4c6.5-24.6,14.4-46.7,14.7-47.7
			c6.3-17.7,25.7-26.9,43.4-20.6c10.1,3.6,17.5,11.5,20.7,20.9c0.4,1.1,1.9,1.3,2.5,0.2c0.9-1.6,1.5-2.6,1.5-2.6
			c4-7.1,10.3-12.5,17.9-15.2c5.8-2.1,36-11.8,59.4,7.5c11,9.1,22.9,26.7,17.6,59.2c-2.1,12.7-6.3,24.7-11,35.4
			c-0.6,1.4,1.2,2.6,2.3,1.5c0.1-0.1,0.1-0.1,0.2-0.2c5.3-5.7,39.6-25.7,46.7-22.5c0,0,12.8,59.4-0.5,72.5
			C1628.5,799.1,1603.6,809.4,1576.2,809.4z M1570.8,741C1570.8,741,1570.8,741,1570.8,741C1570.8,741,1570.8,741,1570.8,741z"/>
	</g>

	<!-- <g class="svg-main"> -->
	<g class="svg-main">
	 	<path clip-path="url(#01)" d="M440.2,480.7c-4.8,0-9.6-0.8-14.2-2.4c-8.1-2.8-22.7-10.8-28.6-32.5c-0.5-1.8-0.9-3.7-1.3-5.7c-9.1,9.9-19.6,17-32.3,19.3
			c-14.6,2.6-29-1.7-40.6-12.2c-22.8-20.6-18-55.6-12.4-80.1c5-21.7,14.2-49.3,27.3-81.9c21.8-54,47.1-103.6,48.2-105.7
			c8.5-16.7,29-23.4,45.7-14.8c16.7,8.5,23.4,29,14.8,45.7c-0.3,0.6-21.1,41.4-40.4,87.4c-1.2,2.9-2.4,5.7-3.5,8.4
			c6-4.3,13.6-7.6,22.9-7.8c2.8-0.1,5.1-0.2,7.2-0.3c8-0.5,24.8-1.4,36.6,13.7c11.9,15.2,6.9,31.2,4.2,39.8
			c-1.6,5.2-4.1,13-6.3,25.3c3.3-4.3,6.4-8.7,9.4-12.9c10.6-15.5,31.8-19.4,47.3-8.8c15.5,10.6,19.4,31.8,8.8,47.3
			c-0.5,0.8-13.3,19.3-28.8,37.2c-10,11.5-19,20.2-27.4,26.6C464.3,475.9,452,480.7,440.2,480.7z"/>
	
		<path clip-path="url(#02)" d="M575.9,488.8c-21,0-40.5-7.8-56.8-22.9c-22.2-20.5-27.4-51.3-14.4-84.6c15.8-40.3,58.8-83.5,97.6-83.6c0,0,0,0,0,0
			c21.3,0,38.8,12.1,46.8,32.5c3.7,9.4,5.1,19.1,4.3,28.6c11.2-6.1,25.4-5.7,36.4,2.4c15.2,11.1,18.5,32.3,7.4,47.5
			c-16.2,22.3-59.7,74.6-112.9,79.8C581.4,488.6,578.6,488.8,575.9,488.8z"/>
	
		<path clip-path="url(#03)" d="M807.4,489.2c-3.3,0-5.7-0.3-7-0.5c-0.8-0.1-1.7-0.3-2.5-0.5c-20-4.5-35.2-17.1-42.8-35.5c-14.8,13.7-32.1,24.9-50.9,24.9
			c-4.1,0-8.4-0.5-12.6-1.7c-13.8-3.8-24.6-13.4-30.2-27c-7-17-5.6-39.1,4.7-71.5c6.4-20,16.3-44.5,29.6-72.9
			c22.1-47.2,45.8-88.9,46.8-90.6c9.3-16.3,30-22,46.4-12.7c16.3,9.3,22,30,12.7,46.4v0c-0.2,0.4-21.3,37.5-41.3,79.6
			c-6,12.5-10.9,23.6-15.1,33.3c10.4-13.9,22.8-31.5,37.4-54c6.3-9.7,12.4-19.3,18.1-28.5c21.5-39.7,41.9-70.8,42.8-72.3
			c10.1-15.3,30.4-19.8,46-10.4c15.6,9.5,21,29.6,12.1,45.6c-1,1.8-18.2,32.6-42.1,71.2c-2.5,4.6-5,9.3-7.4,14.1
			c-25.8,50.3-32.5,77.3-34.1,90.3c6.5-4.2,15.4-12.3,25.4-27.6c10.3-15.7,31.3-20.2,47-9.9c15.7,10.3,20.2,31.3,9.9,47
			c-17.8,27.4-38.4,46.2-61.1,56C825.8,488,814.5,489.2,807.4,489.2z M807.3,421.3C807.3,421.3,807.3,421.3,807.3,421.3
			S807.3,421.3,807.3,421.3z"/>
	
		<path clip-path="url(#04)" d="M915.7,480.3c-21.2,0-40.3-11.1-52.8-30.8c-12.4-19.6-16.1-41.6-10.7-63.7c11.1-45.6,56.3-84,72.8-86.9c17-3,28.5,0,33,0
			c18.5,0.2,34.9,1.4,45.2,16.8c8.3,12.5,12.5,27.2,12.5,43.3c1.2,1.4,2,2.4,3.2,3.8c17.5,2.7,30.2,18.4,28.8,36.3
			c-1.5,18.7-17.9,32.7-36.6,31.2c-5.5-0.4-10.6-1-15.6-1.6c-1.5-0.2-2.9,0.5-3.7,1.7c-16.5,24.6-42.5,48.3-73.2,49.8
			C917.6,480.3,916.7,480.3,915.7,480.3z M925.2,399.7c-2-2.4-5.9-1.6-6.7,1.4c-0.1,0.3-0.2,0.6-0.2,0.9c0,0,0,0.1,0,0.1
			c-0.9,3.7,3.6,6.2,6.4,3.6c0.2-0.2,0.4-0.4,0.5-0.5c1.4-1.4,1.5-3.7,0.2-5.3C925.3,399.8,925.3,399.8,925.2,399.7z"/>
	
		<path clip-path="url(#05)" d="M383.5,672.5c-7.9,0-16.5-2.5-24.9-9.2c-14.7-11.6-17.2-32.9-5.7-47.6c-0.5-3.6-1.1-7.3-1.7-10.3
			c-3.8-18.4,8-36.4,26.4-40.2c18.4-3.8,36.4,8,40.2,26.4c0.2,1.1,2.2,10.8,3.3,21.5c1.3,12,4.2,40-18.1,53.8
			C397.7,670.2,390.9,672.5,383.5,672.5z"/>
	
		<path clip-path="url(#05)" d="M336.9,822.8c-19.5,0-35.7-9-44.5-24.7c-12-21.4-8.3-50.6,12-94.5c11.7-25.5,25.2-47.4,25.7-48.3
			c9.9-16,30.8-21,46.8-11.1c16,9.9,21,30.8,11.1,46.8c-0.3,0.5-9.9,16.2-19,35.1c-2.3,4.7-4.2,8.9-5.8,12.7
			c0.5-0.8,26.6-16.9,36.9-20.7c23.6-8.8,30.2,25.8,22.8,49.9c-1.5,4.9-3.6,9.4-6,12.7c-0.7,0.9-1.4,1.9-2.1,2.8
			C395.1,808.8,367.4,822.8,336.9,822.8z"/>
	
		<path clip-path="url(#06)" d="M424.8,640.5c-13.5,0-26.3-8.1-31.6-21.4c-3.8-9.5-3-19.8,1.4-28.3c-0.3-3.1-0.9-7-1.4-9.7c-4-18.4,7.7-36.4,26-40.4
			c18.3-4,36.4,7.7,40.4,26c0.2,1,2.1,9.9,2.8,19.6c0.6,7.3,0.4,13.5-0.5,19.1c-3.6,21.9-18.3,30-24.5,32.5
			C433.3,639.7,429,640.5,424.8,640.5z M412.1,575C412.1,575,412.1,575,412.1,575C412.1,575,412.1,575,412.1,575z M412.2,574.9
			C412.2,575,412.2,575,412.2,574.9C412.2,575,412.2,575,412.2,574.9z"/>
	
		<path clip-path="url(#07)" d="M642.9,806.6c-4.8,0-9.5-0.8-14.2-2.5c-15-5.5-24.9-19-26.6-36.1c-0.1-0.6-0.1-1.2-0.1-1.8c-7.9,10.1-20.4,24.9-39.7,24.9
			c-0.9,0-1.8,0-2.7-0.1c-10.9-0.8-20.8-6.3-27.1-15.1c-4.5-6.2-6.7-12.7-7.4-20c-2.5,3-4.9,5.7-7.3,8.2
			c-16.9,17.3-34.4,23.9-52.3,19.8c-11.7-2.7-21.6-10.2-27.8-21.1c-9.6-16.8-10.1-40.6-1.9-79.4c4.8-22.8,11.1-42.7,11.4-43.5
			c5.7-17.9,24.8-27.8,42.7-22.1c13.1,4.1,21.9,15.5,23.5,28.3c3.3-3.6,7.4-6.4,12-8.3c11.2-4.6,39.7-13.6,61.9,1.3
			c4,2.7,7.4,5.9,10.3,9.6c4.1-5.4,9.8-9.5,16.3-11.7c13.1-4.4,45.9-12.4,67,7.7c5.9,5.6,18.7,21.4,11.3,47.9
			c-0.7,2.4-1.4,4.9-2.3,7.5c13.9-12.3,35.1-11.3,47.7,2.4c12.7,13.8,11.8,35.3-2.1,48c-0.6,0.6-15.6,14.2-32.7,27.4
			C680.4,795,661.1,806.6,642.9,806.6z"/>
	
		<path clip-path="url(#08)" d="M841.5,647.8c-2.4,0-4.8-0.2-7.3-0.6c-18.5-3.3-30.8-20.9-27.6-39.4c0.6-3.2,1.6-6.2,2.9-9c-0.3-0.8-0.6-1.6-0.8-2.2
			c-7.2-17.3,1-37.2,18.4-44.4c17.3-7.2,37.2,1,44.4,18.4c0.3,0.8,3.3,7.9,5.5,16.2c2,7.3,8.1,29.6-5.8,46.9
			C863.9,642.7,853.2,647.8,841.5,647.8z M812.2,607.8L812.2,607.8L812.2,607.8z"/>
	
		<path clip-path="url(#08)" d="M728.6,953.8c-8.8,0-17.5-2.3-25.5-6.9c-23.2-13.3-32.5-38.4-24.8-67.2c8-29.8,35.1-68.2,80.8-114.1
			c3.2-3.2,6.5-6.5,9.8-9.7c11.3-46.9,18.2-87.2,18.3-87.6c3.2-18.5,20.7-31,39.2-27.8c18.5,3.2,31,20.7,27.8,39.2
			c-0.1,0.8-1.3,7.4-3.3,18.2c0.5,0,1,0,1.5,0c18.8,0,34,15.2,34,34c0,14.9-9.5,27.5-22.9,32.1c-5.6,3.6-18.2,13.8-33.5,27.8
			c-0.4,1.5-0.8,3.1-1.2,4.6c-9.3,35.4-18.9,64.8-28.5,87.5c-15.2,35.8-30.5,55.8-49.8,64.9C743.4,952.2,736,953.8,728.6,953.8z
			 M852.4,766C852.4,766,852.3,766,852.4,766C852.3,766,852.4,766,852.4,766z M852.4,766C852.4,766,852.4,766,852.4,766
			C852.4,766,852.4,766,852.4,766z"/>
	
		<path clip-path="url(#09)" d="M932.9,661.1c-4.1,0-8.2-0.7-12.2-2.3c-10.3-3.9-18.2-11.8-22.2-22.2c-6.1-15.6-1.6-32.5,2.4-43.8
			c3.1-8.9,6.7-16.2,7.1-17c8.2-16.9,28.6-23.9,45.5-15.7c16.9,8.2,23.9,28.5,15.7,45.4l0,0c-1.5,3.1-3,6.9-4.1,10.1
			c2.7,7.4,2.8,15.8-0.3,23.7C959.4,652.8,946.5,661.1,932.9,661.1z M945.1,595.4C945.1,595.4,945.1,595.4,945.1,595.4
			C945.1,595.4,945.1,595.4,945.1,595.4z"/>

		<path clip-path="url(#09)" d="M905.4,817.3c-18.1,0-33.4-8.3-42.1-22.8c-11.8-19.5-10-45.7,5.6-85.1c8.9-22.4,19.4-41.6,19.9-42.4
			c9.1-16.4,29.7-22.4,46.2-13.4c16.4,9.1,22.4,29.7,13.4,46.2l0,0c0,0.1-1.5,2.7-3.6,6.9c5.2-1.8,10.8-2.4,16.6-1.4
			c18.5,3,31.1,20.5,28.1,39c-4.1,24.8-26.6,71.8-82.9,72.9C906.2,817.3,905.8,817.3,905.4,817.3z"/>
	
		<path clip-path="url(#10)" d="M1023.3,951.8c-13.5,0-26.3-6.9-35.3-19.4c-16.7-23.3-14.9-55,5.2-94.3c8.1-15.7,18.4-31.6,29.2-46.3
			c-12,3.9-24.1,4.9-36.2,2.9c-28.7-4.8-39.9-23.1-44-33.6c-8.4-21.4-3.4-48.1,15.2-81.9c11.1-20.1,23.6-36.4,24.1-37
			c11.5-14.9,32.8-17.7,47.7-6.2c14.9,11.5,17.7,32.8,6.2,47.7c-0.4,0.5-8.5,11.2-16.3,24.6c-2.7,4.7-4.9,8.8-6.6,12.3
			c6-4.7,13.6-12.2,22.6-23.9c16.2-21.3,27.3-44.2,27.4-44.4c7.2-15.2,24.5-22.8,40.6-17.9c16.1,4.9,26.2,20.9,23.7,37.5
			c-0.1,0.7-0.8,5.2-2,12.7c7.1-4.3,13.9-6.5,21.4-6.5c18.8,0,34,15.2,34,34c0,14.5-9,26.8-21.8,31.7c-8.4,6.1-30.9,27.3-54.6,54.7
			c-7.7,36.1-15.3,65.4-22.5,87.3c-11.5,34.6-24.1,58.9-48.5,64.8C1029.8,951.4,1026.5,951.8,1023.3,951.8z M1146.5,746
			C1146.5,746,1146.5,746,1146.5,746C1146.5,746,1146.5,746,1146.5,746z M997.2,727.5L997.2,727.5L997.2,727.5z"/>
	
		<path clip-path="url(#11)" d="M1205.9,798.9c-15.2,0-29.8-4.2-42.6-12.4c-16.7-10.8-26.5-27.2-27.4-46.3c-1.2-25.3,13.2-53.5,44.2-86.2
			c19.5-20.6,39.1-36.2,39.9-36.8c14.7-11.6,36.1-9.2,47.8,5.6c0.5,0.6,0.9,1.2,1.4,1.9c3.7,1.9,7.1,4.5,10,7.7
			c15.6,17.5,24.5,37.5,26.1,58.6c1.9,0.3,3.9,0.7,6,1c18.6,2.9,31.3,20.2,28.4,38.8c-2.9,18.6-20.2,31.3-38.8,28.4
			c-5.3-0.8-10.4-1.8-15.3-2.8c-1.5,2-3.1,4-4.7,5.9c-13.9,16.3-32.3,28.2-51.9,33.5C1221.3,797.8,1213.5,798.9,1205.9,798.9z
			 M1216.4,715.8c-5.1,6.5-8.2,11.5-10,15c4.9-0.1,10.8-2.5,16.2-6.6C1220.3,721.6,1218.2,718.7,1216.4,715.8z"/>
	
		<path clip-path="url(#11)" d="M1370.2,809.3c-14.5,0-29.7-3.7-45.3-11.1c-38.5-18.3-44.6-45.1-44.8-59.5c-0.4-26.4,16.3-51.8,51.1-77.7
			c20.9-15.6,41.8-26.3,42.7-26.8c7.3-3.7,15.2-4.6,22.6-3c0.2,0,0.4-0.1,0.6-0.1c10.3-2,21,0.9,29,7.8c17.1,15,27.5,37.6,29.4,63.8
			c11.4,5.4,19.3,16.9,19.4,30.4c0.2,18.8-14.8,34.2-33.6,34.4c0,0-0.1,0-0.1,0c-0.9,1.5-1.8,3-2.7,4.4
			c-11.6,17.7-28,29.7-47.3,34.8C1384.3,808.4,1377.3,809.3,1370.2,809.3z M1350.7,735c0.9,0.5,2,1.1,3.4,1.7
			c10.5,5,16.8,5.3,20.8,3.8c-1.3-1.7-2.5-3.4-3.6-5.1c-2.9-4.6-5.1-9.4-6.6-14.3C1357.6,727,1353.2,731.7,1350.7,735z"/>
	
		<path clip-path="url(#12)" d="M1576.2,809.4c-1.8,0-3.6,0-5.4-0.1c-22.7-1.1-38.8-9.3-47.7-24.3c-3.5-5.9-5.6-12.4-6.2-19.4c-0.1-1.2-1.6-1.7-2.4-0.8
			c-18,20.4-32.8,28.7-48.9,28.7c-13.2,0-25.1-6.2-32.7-17c-11.7-16.6-11.6-40.5,0.3-85.4c6.5-24.6,14.4-46.7,14.7-47.7
			c6.3-17.7,25.7-26.9,43.4-20.6c10.1,3.6,17.5,11.5,20.7,20.9c0.4,1.1,1.9,1.3,2.5,0.2c0.9-1.6,1.5-2.6,1.5-2.6
			c4-7.1,10.3-12.5,17.9-15.2c5.8-2.1,36-11.8,59.4,7.5c11,9.1,22.9,26.7,17.6,59.2c-2.1,12.7-6.3,24.7-11,35.4
			c-0.6,1.4,1.2,2.6,2.3,1.5c0.1-0.1,0.1-0.1,0.2-0.2c5.3-5.7,39.6-25.7,46.7-22.5c0,0,12.8,59.4-0.5,72.5
			C1628.5,799.1,1603.6,809.4,1576.2,809.4z M1570.8,741C1570.8,741,1570.8,741,1570.8,741C1570.8,741,1570.8,741,1570.8,741z"/>
	</g>
	
</svg>
