<?xml version="1.0" encoding="utf-8"?>
<!-- Generator: Adobe Illustrator 27.5.0, SVG Export Plug-In . SVG Version: 6.00 Build 0)  -->
<svg version="1.1" id="Layer_1" xmlns="http://www.w3.org/2000/svg" xmlns:xlink="http://www.w3.org/1999/xlink" x="0px" y="0px"
	 viewBox="0 0 1198 660" style="enable-background:new 0 0 1198 660;" xml:space="preserve">
<style type="text/css">
	
	.st0{
            fill:transparent;
            stroke-width: 3;
            stroke-dasharray: 1800;
            stroke-dashoffset: 0;
            animation: effect1 8s 1s forwards;
        }
	
            
        @keyframes effect1{
            from{
                stroke-dashoffset: 1800;
                stroke:#e71e41;
            }
            to{
                fill:#e71e41;
                stroke:#ffbfc3;
                stroke-width: 0;
            }

        }
</style>
<g >
	<path class="st0" d="M189.75,124.34c0.67-1.34,1.97-2.01,3.9-2.01c1.92,0,3.81,0.38,5.66,1.13c1.84,0.75,3.39,1.8,4.65,3.14
		c1.26,1.34,1.63,2.68,1.13,4.02c-1.68,3.35-4.4,8.34-8.17,14.96c-3.77,6.62-8.3,13.91-13.58,21.87
		c-5.28,7.96-10.98,16.13-17.1,24.51c-6.12,8.38-12.32,16.01-18.6,22.88c-6.29,6.87-12.49,12.49-18.6,16.84
		c-6.12,4.36-11.59,6.54-16.42,6.54c-8.15,0-14.89-3.06-20.21-9.18c-5.33-6.12-7.99-14.37-7.99-24.76c0-3.52,0.71-7.88,2.12-13.07
		c1.41-5.19,3.28-10.85,5.61-16.97c2.33-6.12,4.95-12.44,7.86-18.98c2.91-6.54,5.78-12.99,8.61-19.36
		c-5.48,6.37-11.22,13.2-17.22,20.49c-6,7.29-11.68,14.46-17.04,21.5c-5.37,7.04-10.23,13.7-14.58,19.99
		c-4.36,6.29-7.54,11.69-9.55,16.22c-0.5,2.01-0.75,3.61-0.75,4.78l0.5,2.01c0.17,0.5,0.29,1.09,0.38,1.76
		c0.08,0.67,0.21,1.26,0.38,1.76l-0.25-0.25c0.5,2.01,0.92,3.86,1.26,5.53c0.33,1.68,0.33,3.14,0,4.4
		c-0.34,1.26-1.13,2.26-2.39,3.02c-1.26,0.75-3.23,1.13-5.91,1.13c-3.35,0-6.74-0.79-10.18-2.39c-3.43-1.59-6.54-3.85-9.3-6.79
		c-2.77-2.93-5.07-6.45-6.91-10.56c-1.84-4.1-2.77-8.67-2.77-13.7c0-4.19,1.09-9.72,3.27-16.59c2.18-6.87,5.07-14.58,8.67-23.13
		c3.61-8.55,7.71-17.68,12.32-27.4c4.61-9.72,9.34-19.61,14.2-29.67c4.69-9.72,9.3-19.36,13.83-28.91
		c4.53-9.55,8.55-18.44,12.07-26.65c3.52-8.21,6.37-15.54,8.55-22c2.18-6.45,3.27-11.52,3.27-15.21c0-2.68,1.89-3.85,5.66-3.52
		c3.77,0.34,7.96,1.63,12.57,3.9c4.61,2.26,8.8,5.11,12.57,8.55c3.77,3.44,5.66,6.91,5.66,10.43c0,4.36-1.25,10.1-3.76,17.22
		c-2.51,7.13-5.69,15.08-9.55,23.88c-3.87,8.8-8.31,18.23-13.34,28.28c-5.03,10.06-10.06,20.2-15.08,30.42l-2.01,3.77v0.25
		c5.03-6.2,10.14-12.28,15.34-18.23c5.19-5.95,10.06-11.31,14.61-16.09c4.54-4.78,8.6-8.67,12.19-11.69
		c3.59-3.02,6.3-4.69,8.15-5.03c2.01-0.17,4.44,0.59,7.29,2.26c2.85,1.68,5.61,3.81,8.3,6.41c2.68,2.6,4.99,5.57,6.91,8.93
		c1.92,3.35,2.89,6.71,2.89,10.06c0,2.51-1.43,6.83-4.27,12.95c-2.85,6.12-6.2,13.29-10.06,21.5c-2.85,5.87-5.83,11.99-8.92,18.35
		c-3.1,6.37-5.93,12.57-8.48,18.6c-2.55,6.03-4.64,11.56-6.29,16.59c-1.64,5.03-2.46,9.05-2.46,12.07v1.76c0,0.34,0.08,0.5,0.25,0.5
		c2.51,0,5.82-1.92,9.93-5.78c4.1-3.85,8.59-8.8,13.45-14.83c4.86-6.03,9.84-12.7,14.96-19.99c5.11-7.29,9.89-14.41,14.33-21.37
		c4.44-6.95,8.3-13.2,11.56-18.73C186.1,131.13,188.4,127.03,189.75,124.34z"/>
	<path class="st0" d="M310.93,124.34c0.67-1.34,1.97-2.01,3.9-2.01c1.92,0,3.81,0.38,5.66,1.13c1.84,0.75,3.39,1.8,4.65,3.14
		c1.26,1.34,1.63,2.68,1.13,4.02c-1.68,3.35-4.23,8.34-7.67,14.96c-3.44,6.62-7.71,13.91-12.82,21.87
		c-5.11,7.96-10.94,16.13-17.47,24.51c-6.54,8.38-13.75,16.01-21.62,22.88c-7.88,6.87-16.34,12.49-25.39,16.84
		c-9.05,4.36-18.52,6.54-28.41,6.54c-8.38,0-15.59-1.76-21.62-5.28c-6.03-3.52-11.06-7.96-15.08-13.32c-4.02-5.36-7-11.23-8.92-17.6
		c-1.92-6.37-2.89-12.48-2.89-18.35c0-11.73,2.85-23.34,8.55-34.82c5.7-11.48,13.2-21.75,22.5-30.8c9.3-9.05,19.77-16.38,31.43-22
		c11.65-5.61,23.51-8.42,35.57-8.42c7.88,0,13.53,1.76,16.97,5.28c3.43,3.52,5.15,8.21,5.15,14.08c0,4.36-1.13,9.35-3.39,14.96
		c-2.26,5.62-5.32,11.44-9.18,17.47c-3.86,6.03-8.3,11.98-13.32,17.85c-5.03,5.87-10.35,11.23-15.96,16.09
		c-5.62,4.86-11.36,9.01-17.22,12.44c-5.87,3.44-11.48,5.74-16.84,6.91c-0.67,3.19-1.01,6.37-1.01,9.55c0,3.86,0.67,7,2.01,9.43
		c1.34,2.43,3.6,3.65,6.79,3.65c7.37,0,14.66-1.89,21.87-5.66c7.2-3.77,14.08-8.59,20.62-14.46c6.54-5.87,12.7-12.36,18.48-19.48
		c5.78-7.12,10.94-14.08,15.46-20.87s8.34-12.9,11.44-18.35C307.37,131.09,309.59,127.03,310.93,124.34z M265.68,105.49
		c-4.02,0-8.42,1.97-13.2,5.91c-4.78,3.94-9.47,9.05-14.08,15.34c-4.61,6.29-8.97,13.37-13.07,21.24
		c-4.11,7.88-7.59,15.67-10.43,23.38c6.03-3.02,12.15-7.37,18.35-13.07c6.2-5.7,11.82-11.73,16.84-18.1
		c5.03-6.37,9.09-12.57,12.19-18.6c3.1-6.03,4.65-10.89,4.65-14.58C266.93,105.99,266.51,105.49,265.68,105.49z"/>
	<path class="st0" d="M388.62,36.6c0,3.69-1.01,8.59-3.04,14.71c-2.03,6.12-4.68,12.99-7.97,20.62
		c-3.29,7.63-7.05,15.88-11.27,24.76c-4.22,8.89-8.61,17.85-13.16,26.9c-4.53,9.39-9.01,18.65-13.45,27.78
		c-4.44,9.14-8.42,17.69-11.94,25.64c-3.52,7.96-6.33,15.08-8.42,21.37c-2.1,6.29-3.14,11.19-3.14,14.71c0,1.17,0.08,1.76,0.25,1.76
		c3.02,0,6.66-1.84,10.94-5.53c4.27-3.68,8.76-8.42,13.45-14.2c4.69-5.78,9.47-12.15,14.33-19.11c4.86-6.95,9.38-13.74,13.58-20.36
		c4.19-6.62,7.83-12.61,10.94-17.98c3.1-5.36,5.32-9.38,6.66-12.07c0.67-1.34,1.92-2.05,3.77-2.14c1.84-0.08,3.73,0.25,5.66,1.01
		c1.92,0.75,3.52,1.8,4.78,3.14c1.26,1.34,1.63,2.68,1.13,4.02c-1.68,3.35-4.36,8.34-8.04,14.96c-3.69,6.62-8.05,13.87-13.07,21.75
		c-5.03,7.88-10.6,15.96-16.72,24.26c-6.12,8.3-12.41,15.8-18.86,22.5c-6.45,6.71-12.86,12.24-19.23,16.59
		c-6.37,4.36-12.41,6.54-18.1,6.54c-8.38,0-15.21-3.06-20.49-9.18c-5.28-6.12-7.92-14.37-7.92-24.76c0-3.68,1.17-9.13,3.52-16.34
		c2.35-7.2,5.45-15.42,9.3-24.64c3.86-9.22,8.13-19.06,12.82-29.54c4.69-10.47,9.47-20.91,14.33-31.3
		c4.53-9.55,8.88-18.94,13.07-28.16c4.19-9.22,7.96-17.72,11.31-25.52c3.35-7.79,6.03-14.62,8.05-20.49
		c2.01-5.86,3.02-10.14,3.02-12.82c0-2.68,1.77-3.77,5.32-3.27c3.54,0.5,7.43,1.97,11.65,4.4c4.22,2.43,8.1,5.49,11.65,9.18
		C386.84,29.48,388.62,33.08,388.62,36.6z"/>
	<path class="st0" d="M464.04,36.6c0,3.69-1.01,8.59-3.04,14.71c-2.03,6.12-4.68,12.99-7.97,20.62
		c-3.29,7.63-7.05,15.88-11.27,24.76c-4.22,8.89-8.61,17.85-13.16,26.9c-4.53,9.39-9.01,18.65-13.45,27.78
		c-4.44,9.14-8.42,17.69-11.94,25.64c-3.52,7.96-6.33,15.08-8.42,21.37c-2.1,6.29-3.14,11.19-3.14,14.71c0,1.17,0.08,1.76,0.25,1.76
		c3.02,0,6.66-1.84,10.94-5.53c4.27-3.68,8.76-8.42,13.45-14.2c4.69-5.78,9.47-12.15,14.33-19.11c4.86-6.95,9.38-13.74,13.58-20.36
		c4.19-6.62,7.83-12.61,10.94-17.98c3.1-5.36,5.32-9.38,6.66-12.07c0.67-1.34,1.92-2.05,3.77-2.14c1.84-0.08,3.73,0.25,5.66,1.01
		c1.92,0.75,3.52,1.8,4.78,3.14c1.26,1.34,1.63,2.68,1.13,4.02c-1.68,3.35-4.36,8.34-8.04,14.96c-3.69,6.62-8.05,13.87-13.07,21.75
		c-5.03,7.88-10.6,15.96-16.72,24.26c-6.12,8.3-12.41,15.8-18.86,22.5c-6.45,6.71-12.86,12.24-19.23,16.59
		c-6.37,4.36-12.41,6.54-18.1,6.54c-8.38,0-15.21-3.06-20.49-9.18c-5.28-6.12-7.92-14.37-7.92-24.76c0-3.68,1.17-9.13,3.52-16.34
		c2.35-7.2,5.45-15.42,9.3-24.64c3.86-9.22,8.13-19.06,12.82-29.54c4.69-10.47,9.47-20.91,14.33-31.3
		c4.53-9.55,8.88-18.94,13.07-28.16c4.19-9.22,7.96-17.72,11.31-25.52c3.35-7.79,6.03-14.62,8.05-20.49
		c2.01-5.86,3.02-10.14,3.02-12.82c0-2.68,1.77-3.77,5.32-3.27c3.54,0.5,7.43,1.97,11.65,4.4c4.22,2.43,8.1,5.49,11.65,9.18
		C462.26,29.48,464.04,33.08,464.04,36.6z"/>
	<path class="st0" d="M597.54,124.59c0.67-1.51,1.97-2.26,3.9-2.26c1.92,0,3.77,0.5,5.53,1.51s3.23,2.26,4.4,3.77
		c1.17,1.51,1.42,3.02,0.75,4.53c-1.17,2.35-2.89,5.53-5.15,9.55s-5.07,8.47-8.42,13.32c-3.35,4.86-7.25,9.85-11.69,14.96
		c-4.44,5.11-9.3,9.89-14.58,14.33c-5.28,4.44-11.02,8.3-17.22,11.56c-6.2,3.27-12.82,5.41-19.86,6.41
		c-7.54,10.56-16.09,19.19-25.64,25.9c-9.55,6.71-19.44,10.06-29.67,10.06c-5.53,0-10.94-1.09-16.22-3.27
		c-5.28-2.18-9.97-5.41-14.08-9.68c-4.11-4.27-7.42-9.59-9.93-15.96c-2.51-6.37-3.77-13.83-3.77-22.38c0-8.04,1.55-16.3,4.65-24.76
		c3.1-8.46,6.71-16.22,10.81-23.26s8.3-12.82,12.57-17.35s7.58-6.79,9.93-6.79c1.67,0,3.52,0.17,5.53,0.5
		c2.01,0.34,3.94,0.75,5.78,1.26c3.02-4.02,6.24-7.79,9.68-11.31c3.43-3.52,7.12-6.58,11.06-9.18c3.94-2.6,8-4.69,12.19-6.29
		c4.19-1.59,8.46-2.39,12.82-2.39c6.37,0,11.6,0.71,15.71,2.14c4.11,1.43,7.37,3.44,9.81,6.03c2.43,2.6,4.1,5.7,5.03,9.3
		c0.92,3.61,1.38,7.5,1.38,11.69c0,21.96-4.95,42.99-14.83,63.1c6.03-3.35,11.77-7.62,17.22-12.82
		c5.44-5.19,10.35-10.47,14.71-15.84c4.36-5.36,8.04-10.47,11.06-15.34C594.02,130.8,596.19,127.11,597.54,124.59z M480.63,218.87
		c5.86,0,11.35-1.55,16.47-4.65c5.11-3.1,9.93-7.33,14.46-12.7c-6.37-1.67-12.36-4.23-17.98-7.67c-5.62-3.43-10.43-7.42-14.46-11.94
		c-2.18,5.2-3.98,10.23-5.41,15.08c-1.43,4.86-2.14,9.14-2.14,12.82c0,2.85,0.67,5.07,2.01,6.66
		C474.93,218.08,477.28,218.87,480.63,218.87z M509.8,171.36c0,3.86,0.92,7.13,2.77,9.81c1.84,2.68,5.19,4.36,10.06,5.03
		c3.35-5.7,6.37-11.65,9.05-17.85c2.68-6.2,4.94-12.28,6.79-18.23c1.84-5.95,3.27-11.65,4.27-17.1c1.01-5.44,1.51-10.18,1.51-14.2
		c0-6.7-0.84-10.06-2.51-10.06c-1.68,0-4.27,2.14-7.79,6.41c-3.52,4.27-7.08,9.6-10.69,15.96c-3.61,6.37-6.75,13.16-9.43,20.36
		C511.14,158.7,509.8,165.32,509.8,171.36z"/>
	<path class="st0" d="M132.18,425.03c0.67-1.17,1.92-1.76,3.77-1.76c1.84,0,3.73,0.38,5.66,1.13c1.92,0.75,3.52,1.8,4.78,3.14
		c1.26,1.34,1.63,2.68,1.13,4.02c-1.68,3.69-4.32,8.92-7.92,15.71c-3.61,6.79-7.84,14.17-12.7,22.12
		c-4.86,7.96-10.23,16.13-16.09,24.51c-5.87,8.38-11.94,15.96-18.23,22.75c-6.29,6.79-12.74,12.36-19.36,16.72
		c-6.62,4.36-13.12,6.54-19.48,6.54c-8.38,0-15.21-3.06-20.49-9.18c-5.28-6.12-7.92-14.37-7.92-24.76c0-3.68,0.84-8.38,2.51-14.08
		c1.68-5.7,3.86-11.86,6.54-18.48c2.68-6.62,5.66-13.49,8.93-20.62c3.27-7.12,6.41-13.95,9.43-20.49c4.02-8.55,7.46-16,10.31-22.38
		c2.85-6.37,4.27-10.47,4.27-12.32c0-2.68,1.67-3.9,5.03-3.65c3.35,0.25,7.04,1.47,11.06,3.65c4.02,2.18,7.71,5.03,11.06,8.55
		c3.35,3.52,5.03,7.13,5.03,10.81c0,1.01-0.42,2.68-1.26,5.03c-0.84,2.35-1.93,5.07-3.27,8.17c-1.34,3.1-2.85,6.45-4.53,10.06
		c-1.68,3.61-3.35,7.17-5.03,10.68c-2.68,5.7-5.57,11.82-8.67,18.35c-3.1,6.54-5.95,12.82-8.55,18.86
		c-2.6,6.03-4.74,11.61-6.41,16.72c-1.68,5.11-2.51,9.09-2.51,11.94c0,1.51,0.25,2.26,0.75,2.26c3.68,0,7.83-1.97,12.44-5.91
		c4.61-3.94,9.38-8.92,14.33-14.96c4.94-6.03,9.84-12.74,14.71-20.11c4.86-7.37,9.34-14.54,13.45-21.5
		c4.1-6.95,7.67-13.24,10.69-18.86c3.02-5.61,5.19-9.76,6.54-12.44V425.03z M90.19,377.26c-3.02,0-5.24-1.13-6.66-3.39
		c-1.43-2.26-2.14-5.15-2.14-8.67c0-3.18,0.59-6.83,1.76-10.94c1.17-4.1,2.72-8,4.65-11.69c1.92-3.68,4.1-6.79,6.54-9.3
		c2.43-2.51,4.9-3.77,7.42-3.77c3.18,0,6.24,0.46,9.18,1.38c2.93,0.92,5.53,2.26,7.79,4.02s4.06,3.94,5.41,6.54
		c1.34,2.6,2.01,5.57,2.01,8.92c0,3.02-0.88,6.12-2.64,9.3c-1.76,3.19-4.23,6.08-7.42,8.67c-3.19,2.6-7,4.74-11.44,6.41
		C100.2,376.42,95.38,377.26,90.19,377.26z"/>
	<path class="st0" d="M161.34,381.53c0,1.85-1.47,2.64-4.4,2.39c-2.93-0.25-6.16-1.26-9.68-3.02c-3.52-1.76-6.75-4.1-9.68-7.04
		c-2.93-2.93-4.4-6.16-4.4-9.68c0-2.34,0.88-5.41,2.64-9.18c1.76-3.77,3.73-7.75,5.91-11.94c2.35-4.53,4.61-9.05,6.79-13.58
		c2.18-4.53,3.27-8.04,3.27-10.56c0-1.51,1.63-2.26,4.9-2.26c3.27,0,6.87,0.59,10.81,1.76c3.94,1.17,7.54,2.85,10.81,5.03
		c3.27,2.18,4.9,4.69,4.9,7.54c0,2.18-0.84,5.03-2.51,8.55c-1.68,3.52-3.69,7.38-6.03,11.56c-1.51,2.68-3.06,5.45-4.65,8.3
		c-1.6,2.85-3.02,5.62-4.27,8.3c-1.26,2.68-2.31,5.24-3.14,7.67C161.75,377.81,161.34,379.86,161.34,381.53z"/>
	<path class="st0" d="M413.25,426.29c0.67-1.34,1.92-2.01,3.77-2.01c1.84,0,3.73,0.38,5.66,1.13c1.92,0.75,3.52,1.76,4.78,3.02
		c1.26,1.26,1.55,2.56,0.88,3.9c-1.51,3.36-4.07,8.34-7.67,14.96c-3.61,6.62-7.88,13.91-12.82,21.87
		c-4.95,7.96-10.35,16.13-16.22,24.51c-5.87,8.38-11.82,16.01-17.85,22.88c-6.03,6.87-12.03,12.49-17.98,16.84
		c-5.95,4.36-11.36,6.54-16.22,6.54c-8.21,0-15.05-3.06-20.49-9.18c-5.45-6.12-8.17-14.37-8.17-24.76c0-3.52,0.75-7.88,2.26-13.07
		c1.51-5.19,3.48-10.89,5.91-17.1c2.43-6.2,5.15-12.57,8.17-19.11c3.02-6.54,6.03-12.99,9.05-19.36
		c-5.53,6.37-11.36,13.2-17.47,20.49c-6.12,7.29-11.9,14.5-17.35,21.62c-5.45,7.13-10.35,13.91-14.71,20.36
		c-4.36,6.45-7.63,12.03-9.81,16.72c-0.17,0.84-0.29,1.59-0.38,2.26c-0.09,0.67-0.13,1.26-0.13,1.76l0.5,2.01
		c0.17,0.5,0.29,1.09,0.38,1.76c0.08,0.67,0.21,1.26,0.38,1.76l-0.25-0.25c0.5,2.01,0.96,3.86,1.38,5.53c0.42,1.68,0.42,3.14,0,4.4
		c-0.42,1.26-1.26,2.26-2.51,3.02c-1.26,0.75-3.23,1.13-5.91,1.13c-3.19,0-6.5-0.79-9.93-2.39c-3.44-1.59-6.54-3.85-9.3-6.79
		c-2.77-2.93-5.03-6.41-6.79-10.43c-1.76-4.02-2.64-8.55-2.64-13.58c0-4.53,0.67-9.34,2.01-14.46c1.34-5.11,3.1-10.39,5.28-15.84
		c2.18-5.45,4.61-10.98,7.29-16.59c2.68-5.61,5.44-11.1,8.3-16.47c1.34-2.68,2.35-4.65,3.02-5.91c0.67-1.26,1.13-2.09,1.38-2.51
		c0.25-0.42,0.29-0.54,0.13-0.38c-5.7,6.37-11.69,13.33-17.98,20.87s-12.32,15.05-18.1,22.5c-5.78,7.46-10.98,14.54-15.59,21.24
		c-4.61,6.71-8.01,12.49-10.18,17.35c-0.17,0.84-0.29,1.63-0.38,2.39c-0.09,0.75-0.13,1.3-0.13,1.63c0,0.84,0.08,1.72,0.25,2.64
		c0.17,0.92,0.42,1.8,0.75,2.64c0.5,2.01,0.92,3.86,1.26,5.53c0.33,1.68,0.33,3.14,0,4.4c-0.34,1.26-1.13,2.26-2.39,3.02
		c-1.26,0.75-3.31,1.13-6.16,1.13c-3.19,0-6.45-0.79-9.81-2.39c-3.35-1.59-6.41-3.85-9.18-6.79c-2.77-2.93-5.07-6.41-6.91-10.43
		c-1.84-4.02-2.77-8.55-2.77-13.58c0-4.53,0.67-9.34,2.01-14.46c1.34-5.11,3.1-10.39,5.28-15.84c2.18-5.45,4.65-10.94,7.42-16.47
		c2.77-5.53,5.57-11.06,8.42-16.59c4.69-9.22,8.88-17.81,12.57-25.77c3.68-7.96,5.53-14.46,5.53-19.48c0-2.68,1.84-4.1,5.53-4.27
		c3.68-0.17,7.79,0.75,12.32,2.77c4.53,2.01,8.63,4.9,12.32,8.67c3.69,3.77,5.53,8.17,5.53,13.2c0,2.51-0.59,5.49-1.76,8.92
		c-1.17,3.44-2.68,7.25-4.53,11.44c4.69-5.7,9.47-11.31,14.33-16.84c4.86-5.53,9.43-10.56,13.7-15.08
		c4.27-4.53,8.13-8.3,11.56-11.31c3.43-3.02,6.16-4.94,8.17-5.78c2.18,0,4.9,0.67,8.17,2.01c3.27,1.34,6.32,3.27,9.18,5.78
		c2.85,2.51,5.32,5.53,7.42,9.05c2.09,3.52,3.14,7.46,3.14,11.82c0,2.35-0.55,5.2-1.63,8.55c-1.09,3.35-2.56,7.13-4.4,11.31
		c5.03-6.03,10.1-11.98,15.21-17.85c5.11-5.87,9.84-11.06,14.2-15.59c4.36-4.53,8.21-8.17,11.56-10.94
		c3.35-2.76,5.78-4.15,7.29-4.15c0.33,0,0.75,0,1.26,0c0.5,0,1.17,0.17,2.01,0.5c2.01,0.5,4.27,1.68,6.79,3.52
		c2.51,1.85,4.86,4.02,7.04,6.54c2.18,2.51,4.02,5.24,5.53,8.17c1.51,2.93,2.26,5.83,2.26,8.67c0,2.35-1.43,6.58-4.27,12.7
		c-2.85,6.12-6.2,13.2-10.06,21.24c-2.85,5.87-5.83,12.03-8.92,18.48c-3.1,6.45-5.91,12.66-8.42,18.6
		c-2.51,5.95-4.61,11.48-6.29,16.59c-1.68,5.11-2.51,9.18-2.51,12.19c0,1.34,0.25,2.01,0.75,2.01c2.35,0,5.49-1.92,9.43-5.78
		c3.94-3.85,8.21-8.8,12.82-14.83c4.61-6.03,9.3-12.7,14.08-19.99s9.26-14.37,13.45-21.24c4.19-6.87,7.88-13.07,11.06-18.6
		C409.64,433.07,411.9,428.97,413.25,426.29z"/>
	<path class="st0" d="M508.03,397.88c0-2.68,1.67-3.9,5.03-3.65c3.35,0.25,7.04,1.47,11.06,3.65c4.02,2.18,7.71,4.99,11.06,8.42
		c3.35,3.44,5.03,7,5.03,10.68c0,2.35-1.22,7.38-3.65,15.08c-2.43,7.71-5.78,17.01-10.06,27.91c-4.27,10.9-9.39,22.88-15.34,35.95
		c-5.95,13.07-12.44,26.32-19.48,39.72c-7.04,13.41-14.5,26.36-22.38,38.84c-7.88,12.48-15.88,23.59-24.01,33.31
		c-8.13,9.72-16.34,17.51-24.64,23.38c-8.3,5.86-16.3,8.8-24.01,8.8c-5.36,0-9.97-1.63-13.83-4.9c-3.85-3.27-6.87-6.91-9.05-10.94
		c-2.18-4.02-3.35-7.67-3.52-10.94c-0.17-3.27,0.75-4.9,2.77-4.9c3.35,0,5.83,0.84,7.42,2.51c1.59,1.67,3.06,3.52,4.4,5.53
		c0.67,1.67,1.34,2.51,2.01,2.51c4.69,0,10.06-2.89,16.09-8.67c6.03-5.78,12.36-13.49,18.98-23.13
		c6.62-9.64,13.32-20.66,20.11-33.06c6.79-12.41,13.37-25.22,19.74-38.47c6.37-13.24,12.36-26.35,17.98-39.35
		c5.62-12.99,10.52-24.89,14.71-35.7c4.19-10.81,7.5-20.03,9.93-27.65C506.81,405.21,508.03,400.22,508.03,397.88z M540.96,330.75
		c7.88,0,13.66,1.88,17.35,5.66c3.68,3.77,5.53,8.59,5.53,14.46c0,5.87-1.55,10.52-4.65,13.95c-3.1,3.44-6.71,6.12-10.81,8.04
		c-4.11,1.93-8.17,3.19-12.19,3.77c-4.02,0.59-6.87,0.88-8.55,0.88c-3.52,0-6.12-1.3-7.79-3.9c-1.68-2.6-2.51-5.99-2.51-10.18
		c0-3.18,0.54-6.7,1.63-10.56c1.09-3.85,2.64-7.42,4.65-10.68c2.01-3.27,4.48-5.99,7.42-8.17
		C533.96,331.84,537.27,330.75,540.96,330.75z"/>
	<path class="st0" d="M641.52,425.03c0.67-1.17,1.92-1.76,3.77-1.76c1.84,0,3.73,0.38,5.66,1.13c1.92,0.75,3.52,1.8,4.78,3.14
		c1.26,1.34,1.63,2.68,1.13,4.02c-1.68,3.69-4.32,8.92-7.92,15.71c-3.61,6.79-7.84,14.17-12.7,22.12
		c-4.86,7.96-10.23,16.13-16.09,24.51c-5.87,8.38-11.94,15.96-18.23,22.75c-6.29,6.79-12.74,12.36-19.36,16.72
		c-6.62,4.36-13.12,6.54-19.48,6.54c-8.38,0-15.21-3.06-20.49-9.18c-5.28-6.12-7.92-14.37-7.92-24.76c0-3.68,0.84-8.38,2.51-14.08
		c1.68-5.7,3.86-11.86,6.54-18.48c2.68-6.62,5.66-13.49,8.93-20.62c3.27-7.12,6.41-13.95,9.43-20.49c4.02-8.55,7.46-16,10.31-22.38
		c2.85-6.37,4.27-10.47,4.27-12.32c0-2.68,1.67-3.9,5.03-3.65c3.35,0.25,7.04,1.47,11.06,3.65c4.02,2.18,7.71,5.03,11.06,8.55
		c3.35,3.52,5.03,7.13,5.03,10.81c0,1.01-0.42,2.68-1.26,5.03c-0.84,2.35-1.93,5.07-3.27,8.17c-1.34,3.1-2.85,6.45-4.53,10.06
		c-1.68,3.61-3.35,7.17-5.03,10.68c-2.68,5.7-5.57,11.82-8.67,18.35c-3.1,6.54-5.95,12.82-8.55,18.86
		c-2.6,6.03-4.74,11.61-6.41,16.72c-1.68,5.11-2.51,9.09-2.51,11.94c0,1.51,0.25,2.26,0.75,2.26c3.68,0,7.83-1.97,12.44-5.91
		c4.61-3.94,9.38-8.92,14.33-14.96c4.94-6.03,9.84-12.74,14.71-20.11c4.86-7.37,9.34-14.54,13.45-21.5
		c4.11-6.95,7.67-13.24,10.69-18.86c3.02-5.61,5.19-9.76,6.54-12.44V425.03z M599.54,377.26c-3.02,0-5.24-1.13-6.66-3.39
		c-1.43-2.26-2.14-5.15-2.14-8.67c0-3.18,0.59-6.83,1.76-10.94c1.17-4.1,2.72-8,4.65-11.69c1.92-3.68,4.1-6.79,6.54-9.3
		c2.43-2.51,4.9-3.77,7.42-3.77c3.18,0,6.24,0.46,9.18,1.38c2.93,0.92,5.53,2.26,7.79,4.02c2.26,1.76,4.06,3.94,5.41,6.54
		c1.34,2.6,2.01,5.57,2.01,8.92c0,3.02-0.88,6.12-2.64,9.3c-1.76,3.19-4.23,6.08-7.42,8.67c-3.19,2.6-7,4.74-11.44,6.41
		C609.55,376.42,604.73,377.26,599.54,377.26z"/>
	<path class="st0" d="M785.33,425.53c1.67-3.02,3.65-4.98,5.91-5.91c2.26-0.92,4.36-1.04,6.29-0.38c1.92,0.67,3.27,2.14,4.02,4.4
		s0.46,4.99-0.88,8.17c-3.02,6.87-7.42,14-13.2,21.37c-5.78,7.38-12.44,14.83-19.99,22.38c-7.54,7.54-15.8,15.08-24.76,22.63
		c-8.97,7.54-18.23,15.08-27.78,22.63c-7.38,15.08-15.3,30.04-23.76,44.88c-8.47,14.83-16.97,28.16-25.52,39.97
		c-8.55,11.82-16.97,21.37-25.27,28.66c-8.3,7.29-15.96,10.94-23,10.94c-7.54,0-13.83-0.97-18.86-2.89
		c-5.03-1.93-9.01-4.32-11.94-7.17c-2.93-2.85-4.98-5.91-6.16-9.18c-1.17-3.27-1.76-6.16-1.76-8.67c0-4.86,2.14-10.14,6.41-15.84
		c4.27-5.7,10.1-11.78,17.47-18.23c7.38-6.45,15.88-13.29,25.52-20.49c9.64-7.21,19.9-14.67,30.8-22.38
		c2.01-3.85,3.64-6.83,4.9-8.92c1.26-2.09,2.26-3.77,3.02-5.03c0.75-1.26,1.38-2.35,1.89-3.27c0.5-0.92,1.09-2.01,1.76-3.27
		c0.67-1.26,1.46-2.97,2.39-5.15c0.92-2.18,2.22-5.19,3.9-9.05c-3.86,4.69-7.67,9.09-11.44,13.2c-3.77,4.11-7.33,7.71-10.69,10.81
		c-3.35,3.1-6.5,5.57-9.43,7.42c-2.93,1.85-5.4,2.77-7.42,2.77c-3.86,0-7.5-1.21-10.94-3.65c-3.43-2.43-6.49-5.41-9.18-8.92
		c-2.68-3.52-4.78-7.29-6.29-11.31c-1.51-4.02-2.26-7.62-2.26-10.81c0-4.53,0.67-9.34,2.01-14.46c1.34-5.11,3.14-10.39,5.41-15.84
		c2.26-5.44,4.78-10.94,7.54-16.47c2.77-5.53,5.57-10.98,8.42-16.34c2.18-4.36,4.36-8.67,6.54-12.95c2.18-4.27,4.1-8.33,5.78-12.19
		c1.67-3.85,3.02-7.46,4.02-10.81c1.01-3.35,1.51-6.2,1.51-8.55c0-2.51,1.84-3.77,5.53-3.77c3.68,0,7.79,0.92,12.32,2.77
		c4.53,1.85,8.63,4.57,12.32,8.17c3.68,3.61,5.53,7.92,5.53,12.95c0,2.18-0.63,5.07-1.89,8.67c-1.26,3.61-2.93,7.67-5.03,12.19
		c-2.1,4.52-4.49,9.43-7.17,14.71c-2.68,5.28-5.45,10.68-8.3,16.22c-3.35,6.54-6.66,12.95-9.93,19.23
		c-3.27,6.29-6.16,11.94-8.67,16.97s-4.49,9.09-5.91,12.19c-1.43,3.1-1.89,4.65-1.38,4.65c1.17,0,3.35-1.63,6.54-4.9
		c3.18-3.27,6.91-7.5,11.19-12.7c4.27-5.19,8.88-11.06,13.83-17.6c4.94-6.54,9.8-13.11,14.58-19.74
		c4.78-6.62,9.26-12.86,13.45-18.73c4.19-5.87,7.62-10.81,10.31-14.83c3.35-8.88,6.07-16,8.17-21.37c2.09-5.36,3.14-8.38,3.14-9.05
		c0-5.19,0.92-8.92,2.77-11.19c1.84-2.26,4.44-3.39,7.79-3.39c2.34,0,4.98,0.97,7.92,2.89c2.93,1.93,5.7,4.32,8.3,7.17
		c2.6,2.85,4.78,5.99,6.54,9.43c1.76,3.44,2.64,6.66,2.64,9.68c0,1.85-0.63,4.95-1.88,9.3c-1.26,4.36-2.98,9.6-5.15,15.71
		c-2.18,6.12-4.74,12.91-7.67,20.36c-2.93,7.46-6.08,15.04-9.43,22.75c12.57-10.22,23.46-20.24,32.68-30.04
		c9.22-9.8,16.51-19.99,21.87-30.55V425.53z M594.26,624.14c4.52,0,9.26-1.72,14.2-5.15c4.95-3.44,10.02-8.04,15.21-13.83
		c5.2-5.78,10.39-12.57,15.59-20.36c5.19-7.79,10.31-16.05,15.34-24.76c-8.88,6.7-17.22,13.07-25.01,19.11s-14.58,11.6-20.36,16.72
		c-5.78,5.11-10.35,9.72-13.7,13.83c-3.35,4.11-5.03,7.58-5.03,10.43C590.49,622.8,591.74,624.14,594.26,624.14z"/>
	<path class="st0" d="M909.02,426.29c0.67-1.51,1.97-2.26,3.9-2.26c1.92,0,3.77,0.5,5.53,1.51c1.76,1.01,3.22,2.26,4.4,3.77
		c1.17,1.51,1.42,3.02,0.75,4.53c-1.17,2.35-2.89,5.53-5.15,9.55c-2.26,4.02-5.07,8.47-8.42,13.32c-3.35,4.86-7.25,9.85-11.69,14.96
		c-4.44,5.12-9.3,9.89-14.58,14.33c-5.28,4.44-11.02,8.3-17.22,11.56c-6.2,3.27-12.82,5.41-19.86,6.41
		c-7.54,10.56-16.09,19.19-25.64,25.89c-9.55,6.71-19.44,10.06-29.67,10.06c-5.53,0-10.94-1.09-16.22-3.27
		c-5.28-2.18-9.97-5.41-14.08-9.68c-4.1-4.27-7.42-9.59-9.93-15.96c-2.51-6.37-3.77-13.83-3.77-22.38c0-8.05,1.55-16.3,4.65-24.76
		c3.1-8.46,6.71-16.22,10.81-23.26c4.11-7.04,8.3-12.82,12.57-17.35c4.27-4.53,7.58-6.79,9.93-6.79c1.67,0,3.52,0.17,5.53,0.5
		c2.01,0.34,3.94,0.75,5.78,1.26c3.02-4.02,6.24-7.79,9.68-11.31c3.43-3.52,7.12-6.58,11.06-9.18c3.94-2.6,8-4.69,12.19-6.29
		c4.19-1.59,8.46-2.39,12.82-2.39c6.37,0,11.6,0.71,15.71,2.14c4.11,1.43,7.37,3.44,9.8,6.03c2.43,2.6,4.11,5.7,5.03,9.3
		c0.92,3.61,1.38,7.5,1.38,11.69c0,21.96-4.95,42.99-14.83,63.1c6.03-3.35,11.77-7.62,17.22-12.82
		c5.44-5.19,10.35-10.47,14.71-15.84c4.36-5.36,8.05-10.47,11.06-15.34C905.5,432.49,907.68,428.8,909.02,426.29z M792.12,520.56
		c5.87,0,11.35-1.55,16.47-4.65c5.11-3.1,9.93-7.33,14.46-12.7c-6.37-1.67-12.36-4.23-17.98-7.67c-5.62-3.43-10.43-7.42-14.46-11.94
		c-2.18,5.2-3.98,10.22-5.41,15.08c-1.43,4.86-2.14,9.14-2.14,12.82c0,2.85,0.67,5.07,2.01,6.66
		C786.42,519.77,788.76,520.56,792.12,520.56z M821.28,473.05c0,3.86,0.92,7.13,2.77,9.8c1.84,2.68,5.19,4.36,10.06,5.03
		c3.35-5.7,6.37-11.65,9.05-17.85c2.68-6.2,4.94-12.28,6.79-18.23c1.84-5.95,3.27-11.65,4.27-17.1c1.01-5.44,1.51-10.18,1.51-14.2
		c0-6.7-0.84-10.06-2.51-10.06c-1.68,0-4.27,2.14-7.79,6.41c-3.52,4.27-7.08,9.6-10.68,15.96c-3.61,6.37-6.75,13.16-9.43,20.36
		C822.62,460.39,821.28,467.01,821.28,473.05z"/>
	<path class="st0" d="M1043.53,426.29c0.67-1.51,1.97-2.26,3.9-2.26c1.92,0,3.77,0.5,5.53,1.51c1.76,1.01,3.22,2.26,4.4,3.77
		c1.17,1.51,1.42,3.02,0.75,4.53c-1.17,2.35-2.89,5.53-5.15,9.55c-2.26,4.02-5.07,8.47-8.42,13.32c-3.35,4.86-7.25,9.85-11.69,14.96
		c-4.44,5.12-9.3,9.89-14.58,14.33c-5.28,4.44-11.02,8.3-17.22,11.56c-6.2,3.27-12.82,5.41-19.86,6.41
		c-7.54,10.56-16.09,19.19-25.64,25.89c-9.55,6.71-19.44,10.06-29.67,10.06c-5.53,0-10.94-1.09-16.22-3.27
		c-5.28-2.18-9.97-5.41-14.08-9.68c-4.1-4.27-7.42-9.59-9.93-15.96c-2.51-6.37-3.77-13.83-3.77-22.38c0-8.05,1.55-16.3,4.65-24.76
		c3.1-8.46,6.71-16.22,10.81-23.26c4.11-7.04,8.3-12.82,12.57-17.35c4.27-4.53,7.58-6.79,9.93-6.79c1.67,0,3.52,0.17,5.53,0.5
		c2.01,0.34,3.94,0.75,5.78,1.26c3.02-4.02,6.24-7.79,9.68-11.31c3.43-3.52,7.12-6.58,11.06-9.18c3.94-2.6,8-4.69,12.19-6.29
		c4.19-1.59,8.46-2.39,12.82-2.39c6.37,0,11.6,0.71,15.71,2.14c4.11,1.43,7.37,3.44,9.8,6.03c2.43,2.6,4.11,5.7,5.03,9.3
		c0.92,3.61,1.38,7.5,1.38,11.69c0,21.96-4.95,42.99-14.83,63.1c6.03-3.35,11.77-7.62,17.22-12.82
		c5.44-5.19,10.35-10.47,14.71-15.84c4.36-5.36,8.05-10.47,11.06-15.34C1040.01,432.49,1042.18,428.8,1043.53,426.29z
		 M926.62,520.56c5.87,0,11.35-1.55,16.47-4.65c5.11-3.1,9.93-7.33,14.46-12.7c-6.37-1.67-12.36-4.23-17.98-7.67
		c-5.62-3.43-10.43-7.42-14.46-11.94c-2.18,5.2-3.98,10.22-5.41,15.08c-1.43,4.86-2.14,9.14-2.14,12.82c0,2.85,0.67,5.07,2.01,6.66
		C920.92,519.77,923.27,520.56,926.62,520.56z M955.79,473.05c0,3.86,0.92,7.13,2.77,9.8c1.84,2.68,5.19,4.36,10.06,5.03
		c3.35-5.7,6.37-11.65,9.05-17.85c2.68-6.2,4.94-12.28,6.79-18.23c1.84-5.95,3.27-11.65,4.27-17.1c1.01-5.44,1.51-10.18,1.51-14.2
		c0-6.7-0.84-10.06-2.51-10.06c-1.68,0-4.27,2.14-7.79,6.41c-3.52,4.27-7.08,9.6-10.68,15.96c-3.61,6.37-6.75,13.16-9.43,20.36
		C957.12,460.39,955.79,467.01,955.79,473.05z"/>
	<path class="st0" d="M1175.52,426.03c1.67-3.02,3.68-4.98,6.03-5.91c2.34-0.92,4.44-1,6.29-0.25c1.84,0.75,3.18,2.22,4.02,4.4
		c0.84,2.18,0.5,4.86-1.01,8.04c-1.68,3.36-4.11,8.34-7.29,14.96c-3.19,6.62-6.91,13.95-11.19,22c-4.27,8.04-9.01,16.22-14.21,24.51
		c-5.2,8.3-10.6,15.88-16.22,22.75c-5.62,6.87-11.31,12.49-17.1,16.84c-5.78,4.36-11.36,6.54-16.72,6.54c-8.21,0-15-3.06-20.36-9.18
		c-5.37-6.12-8.04-14.37-8.04-24.76c0-3.52,0.71-7.83,2.14-12.95c1.42-5.11,3.31-10.68,5.66-16.72c2.34-6.03,4.99-12.32,7.92-18.86
		c2.93-6.54,5.82-12.9,8.67-19.11c-5.53,6.54-11.36,13.49-17.47,20.87c-6.12,7.38-11.9,14.62-17.35,21.75
		c-5.45,7.13-10.27,13.83-14.46,20.11c-4.19,6.29-7.29,11.53-9.3,15.71c-0.17,0.84-0.29,1.59-0.38,2.26
		c-0.09,0.67-0.13,1.17-0.13,1.51l0.5,2.01c0.17,0.5,0.25,1.09,0.25,1.76c0,0.67,0.08,1.26,0.25,1.76v-0.25
		c0.5,2.01,0.92,3.86,1.26,5.53c0.33,1.68,0.33,3.14,0,4.4c-0.34,1.26-1.17,2.26-2.51,3.02c-1.34,0.75-3.36,1.13-6.03,1.13
		c-3.19,0-6.45-0.79-9.8-2.39c-3.35-1.59-6.41-3.85-9.18-6.79c-2.77-2.93-5.07-6.41-6.91-10.43c-1.84-4.02-2.76-8.55-2.76-13.58
		c0-4.53,0.67-9.34,2.01-14.46c1.34-5.11,3.1-10.39,5.28-15.84c2.18-5.45,4.65-10.94,7.42-16.47s5.57-11.06,8.42-16.59
		c4.69-9.22,8.88-17.81,12.57-25.77c3.69-7.96,5.53-14.46,5.53-19.48c0-2.68,1.84-4.1,5.53-4.27c3.68-0.17,7.79,0.75,12.32,2.77
		c4.53,2.01,8.63,4.9,12.32,8.67c3.68,3.77,5.53,8.17,5.53,13.2c0,2.35-0.63,5.28-1.89,8.8c-1.26,3.52-2.89,7.46-4.9,11.82
		c5.19-6.2,10.35-12.23,15.46-18.1c5.11-5.87,9.89-11.1,14.33-15.71c4.44-4.61,8.34-8.33,11.69-11.19c3.35-2.85,5.78-4.27,7.29-4.27
		c0.33,0,0.84,0,1.51,0c0.67,0,1.34,0.17,2.01,0.5c2.01,0.67,4.27,1.89,6.79,3.65c2.51,1.76,4.86,3.86,7.04,6.29
		c2.18,2.43,3.98,5.12,5.41,8.05c1.42,2.93,2.14,5.91,2.14,8.92c0,2.35-1.38,6.58-4.15,12.7c-2.77,6.12-6.08,13.2-9.93,21.24
		c-2.85,5.87-5.83,12.03-8.92,18.48c-3.1,6.45-5.91,12.66-8.42,18.6c-2.51,5.95-4.61,11.48-6.29,16.59
		c-1.68,5.11-2.51,9.18-2.51,12.19c0,1.34,0.17,2.01,0.5,2.01c2.51,0,5.53-1.76,9.05-5.28s7.33-8.13,11.44-13.83
		c4.1-5.7,8.25-12.02,12.44-18.98c4.19-6.95,8.13-13.87,11.82-20.74c3.68-6.87,7-13.28,9.93-19.23c2.93-5.95,5.15-10.77,6.66-14.46
		V426.03z"/>
</g>
<g>
</g>
<g>
</g>
<g>
</g>
<g>
</g>
<g>
</g>
<g>
</g>
<g>
</g>
<g>
</g>
<g>
</g>
<g>
</g>
<g>
</g>
<g>
</g>
<g>
</g>
<g>
</g>
<g>
</g>
</svg>
