<?xml version="1.0" encoding="utf-8"?>
<!-- Generator: Adobe Illustrator 23.0.2, SVG Export Plug-In . SVG Version: 6.00 Build 0)  -->
<svg version="1.1" id="Layer_1" xmlns="http://www.w3.org/2000/svg" xmlns:xlink="http://www.w3.org/1999/xlink" x="0px" y="0px" viewBox="0 0 808.5 439.8" style="enable-background:new 0 0 808.5 439.8;" xml:space="preserve">
<style type="text/css">
	     
        svg {
            <!-- fill:transparent; -->
            stroke-dasharray: 1000px;
            animation: stroke 2.5s linear;
            animation-fill-mode: forwards;
        }
		
		@keyframes stroke {
            0%{
                stroke:#ffbfc3;
				fill: #ffbfc3;
                stroke-width: 5px;
                stroke-dashoffset: 1000px;
            }
			
			30%{
				fill: #ffbfc3;
                stroke-width: 5px;
            }

            70% { 
				stroke:#e71e41;
                stroke-width: 3px;
            }
            100% {
                fill: #e71e41;
                stroke-dashoffset: 0px;
            }
      
	   
        
        
</style>
<path id="01" d="M61.3,110.4c-1.2,0.8-1.5,2-2.2,3.1c-6.6,12-13.6,23.8-20.9,35.6c-1.7,2.6-3.6,5-5.8,7.3
	c-4.5,5-10.3,5.7-16.6,5c-1,0-1.8-0.3-2.8-0.5c-4.5-1-7.3-3.6-8.9-7.8c-1.8-4.9-2.3-10.1-2-15.1c1.3-22.3,6.3-43.8,12.6-64.9
	C20.1,54.6,28,37.1,38.9,21C43.4,14.7,48.5,8.7,55,4.1c3.6-2.4,7.4-3.7,11.8-4.1C68.9-0.1,71,0.2,73,1c2.8,1.5,3.3,2.6,1.5,5.2
	c-4,5.9-7.4,12-10.6,18.4C56.3,40.6,50,57,45.5,73.9c-5.6,20.5-10.4,41.3-15.4,62c-0.2,1-0.7,2-0.2,3.1c1.2-0.5,1.5-1.6,2.2-2.4
	c6.3-9.1,11.9-18.6,17.7-28c6.1-9.8,12.6-19,18.4-29c0.8-1.3,1.8-2.1,3.1-2.8c5.8-3.1,11.6-2.9,17.5-0.5c3.6,1.6,5.1,4.7,5.5,8.5
	c0.3,4.6-0.2,9.1-1,13.7c-1.7,8.8-4.3,17.6-6.1,26.5c-1.3,6.8-3,13.7-2.8,20.8c0,1.3,0,2.4,0.3,3.6c0.8,2.3,2,2.8,4,1.8
	c2.5-1.3,4.6-2.8,6.6-4.6c2.8-2.4,5.3-4.9,7.6-7.8c5-6,9.9-12.2,14.9-18.2c1-1.1,2.2-2.4,3.1-3.6c0.8-0.7,1.7-1.3,2.6-1.5
	c0.8,0,1.5,0.2,2,0.8c0.7,0.7,0,1.3-0.3,1.8c-0.5,0.8-1,1.5-1.5,2.3c-4.3,6.2-8.4,12.4-12.6,18.6c-3.6,5.5-8.1,10.3-13.2,14.3
	c-8.3,6.3-17.5,7.3-27.5,4.9c-4.5-1.1-7.6-4.2-9.3-8.6c-1.5-3.3-2.2-6.8-2.2-10.6c-0.2-8.5,0.5-16.9,2-25.2c0.2-0.8,0.3-1.6,0.3-2.4
	C61.4,111.2,61.4,110.9,61.3,110.4z"/>
<path id="02" class="st0" d="M168.2,81.6c5.3-0.2,9.9,1,14.6,3.4s6.5,6.2,6.8,11.1c0.3,5-1.3,9.8-4.3,13.8c-4,5.7-8.9,10.7-15.1,14.5
	c-4.8,3.1-10.1,4.7-15.9,5.4c-1.3,0.2-2.8,0.5-4.1,0.5c-1.8,0-2.8,0.8-3.1,2.6c-1.5,6.7-1.8,13.3,0.8,19.9c3.5,8,6,9,13.7,7
	c6.3-1.6,12.1-4.4,17.4-8.3c6-4.2,11.3-9.4,16.6-14.3c7.8-7,14.6-15,21.9-22.3c0.7-0.7,1.3-1.5,2.2-2.1c0.7-0.7,1.5-0.8,2.5-0.7
	c1.3,0.2,1.8,1,1.2,2.1c-0.3,0.7-0.8,1.1-1.3,1.6c-6.5,8-13.4,15.5-20,23.3c-1.8,2.3-3.6,4.4-5.5,6.5c-5.3,6.5-11.8,11.9-18.9,16.4
	c-6.3,4.1-13.4,6.3-20.9,6.2c-15.6,0-28.5-5.5-36.9-18.9c-4-6.3-5.1-13.3-3.6-20.7c1.2-7,3.3-13.7,6.5-20.2
	c3.1-6,7.6-10.9,12.9-15.1c7.8-6.5,17.1-10.1,27-11.4C164.4,81.6,166.4,81.6,168.2,81.6z M175.8,96.4c0-0.3,0-0.5,0-0.8
	c-0.2-3.3-0.8-3.4-3.6-2.1c-4.6,2-7.9,5.4-11.3,8.8c-5.1,5.4-8.1,11.9-10.6,18.6c-0.5,1.8,0,2.3,1.8,1.8c2.8-0.8,5.5-2,7.8-3.6
	c4.3-2.9,7.9-6.5,11.1-10.4C173.8,105,175.7,101.1,175.8,96.4z"/>
<path id="03" d="M286.4,105.3c-2.2,3.7-4.3,7.8-6.5,11.6c-5.3,9.4-10.3,18.9-16.4,27.7c-3,4.2-6.5,8.1-10.1,11.9
	c-4.1,4.4-9.6,6-15.6,5.9c-0.2,0-0.3,0-0.7,0c-10.3-0.8-14.9-4.4-18.2-14.2c-1.7-5.2-2-10.6-2-15.9c0.2-11.7,2.6-23.1,6.3-34.3
	c5.3-17.2,11.9-34.2,21.2-49.8c6.3-10.7,14.1-20.7,23-29.3c3.8-3.6,7.9-5.5,13.4-4.6c2.5,0.5,4.6,1.5,6.5,3.1
	c2.5,2.1,2.8,3.6,1.2,6.3c-1.7,3.3-3.5,6.3-5.3,9.4C276.2,45.3,270.2,58,264.6,71c-6,13.5-11.1,27.2-15.7,41.2
	c-2.5,7.3-4.3,14.8-5.6,22.3c-0.8,4.7-1,9.4-0.7,14.2c0,1,0.2,1.8,0.3,2.8c0.5,2.1,1,2.3,2.5,0.8c0.8-0.7,1.5-1.3,2.3-2.1
	c5.3-5.4,9.9-11.2,14.1-17.6c7.9-11.9,15.9-23.6,23.2-36c2-3.3,3.8-6.7,6-9.9c2.6-4.2,4.3-9.1,6.1-13.7c6.5-16.1,14.9-31.1,24-45.7
	c2.8-4.2,6.1-8.3,9.4-12.2c2.3-2.6,4.8-3.9,8.3-3.7c1.7,0,3.3,0,5,0.3c3.1,0.8,4,2,3.6,5.2c-0.3,3.6-1.8,6.7-3.1,9.8
	c-6.3,15.6-13.7,30.6-19.7,46.2c-6.5,16.9-12.4,34-17.2,51.4c-1.8,6.3-3.3,12.9-4,19.5c-0.5,5-0.3,9.9,0.5,14.8
	c0.5,2.3,0.8,2.4,2.6,0.8c6.3-5.9,12.1-12,30.5-34c0.7-0.8,1.3-1.6,2-2.3c0.8-1,2-1.5,3.1-1.6c2.2-0.2,3.1,1,2.2,2.9
	c-1.5,3.6-17.2,21.8-19.5,24.7c-3.8,4.9-7.9,9.4-11.8,14.2c-5,6.2-15.9,6.5-21.9,2.4c-2.5-1.6-4-4.2-5.1-7
	c-2.6-6.7-3.8-13.5-3.8-20.7C282.1,127,284.1,116.2,286.4,105.3z"/>
<path id="04" d="M407.9,106.6c0.3,4.1-0.2,8.1-1.2,12.2c-0.5,2.3-0.3,2.4,1.8,3.4c5.3,2.1,10.6,2.3,16.1,1.5
	c3.8-0.5,7.4-1.1,10.9-2.9c0.3-0.2,0.5-0.3,0.8-0.3c0.7-0.2,1.3-0.2,1.7,0.5c0.3,0.7,0,1.1-0.5,1.5c-0.7,0.5-1.3,1.1-2,1.3
	c-4.8,2-9.6,3.7-14.7,4.4c-4.5,0.5-8.8-0.2-13.1-1c-3.1-0.5-3.1-0.5-4.1,2.4c-1.3,3.3-2.6,6.3-4.3,9.4c-7,13.3-18.5,19.9-33.6,21
	c-4.1,0.3-8.3-0.2-12.4-1.1c-13.7-3.3-22.2-16.8-22-27.3c0-11.2,2.3-22,8.4-31.4c9.4-14.5,22.8-23.1,40.6-24.9
	c5-0.5,9.9,0.5,14.6,2.6c5.8,2.6,8.8,7.3,10.9,12.9C407.6,95.9,408.1,101.1,407.9,106.6z M397,90.5c-1.8-2.6-4.1-3.9-6.3-5.2
	c-2.3-1.6-4.5-1.5-6.8,0c-3.8,2.6-7.1,5.5-9.9,9c-7.6,8.8-13.1,18.6-14.9,30.1c-0.8,4.9-1.3,9.8-0.3,14.6c1,4.9,3,9.1,7.3,11.9
	c2.3,1.6,4.8,2.3,7.8,1.6c5.8-1.3,10.4-4.2,14.2-8.5c4.6-5.2,7.6-11.2,9.9-17.6c0.8-2.1,0.7-2.4-1.5-3.7c-2.6-1.8-5.1-3.9-7.4-6.2
	c-3.3-3.6-5-7.8-4.8-12.7c0.2-6.5,3.8-11.1,10.3-12.7C395.2,91,395.8,90.8,397,90.5z M400.6,116.2c0.8-1.6,0.8-3.4,1.2-5.2
	c0.7-4.2,0.5-8.5,0.5-12.5c0-2.1-1.3-3.9-3-4.2c-1.5-0.5-3.5,0.5-4.6,2.3c-0.2,0.3-0.3,0.7-0.5,1
	C391.4,103.5,394.4,112.7,400.6,116.2z"/>
<path id="05" d="M0,337.2c-0.2-3.9,0.5-7.6,1.3-11.4c2.3-10.4,5.5-20.7,9.8-30.4c1.7-3.7,3.8-7,6.5-9.9
	c4.1-4.9,14.7-6.7,21.4-2.8c1.8,1.1,2.5,2.4,1.8,4.7c-0.3,1.5-1,2.8-1.7,4.2c-4.6,12-9.1,24.2-12.1,37.1c-1.5,6.7-2.5,13.3-2.2,20.3
	c0,1.5-0.3,3.4,1.5,4.2c1.5,0.8,2.8-0.7,4-1.5c5.1-3.3,8.9-8,12.9-12.5c4.8-5.5,9.4-11.4,13.7-17.2c1-1.1,1.8-2.3,3.3-2.4
	c1.5-0.2,2.2,0.7,1.7,2c-0.3,0.8-0.8,1.5-1.2,2.1c-6.3,9.4-12.9,18.7-20,27.7c-5,6.2-11.6,9.8-19.9,9.3c-3.6-0.2-7.1-1-10.4-2.6
	c-3.3-1.8-6-4.2-7.6-7.6C1,346.5,0,342.1,0,337.2z M42.4,235.8c5.1,0,9.1,1.5,12.6,4.2c3.5,2.6,4,5.4,1.3,9.1
	c-1.7,2.4-3.6,4.9-5.5,7.3c-1.8,2.6-3.6,5.2-5.3,7.8c-1,1.6-2.3,3.3-2.2,5.5c0.2,1.1-0.8,1.8-1.8,2c-1.5,0.2-3,0-4.3-0.3
	c-3-0.8-5.5-2.4-7.6-4.4c-1.8-1.8-2.5-3.9-2.2-6.3c0.5-3.9,1.5-7.6,2.5-11.6c0.8-2.4,1.5-4.7,2.2-7.2c0.8-3.4,3-5.5,6.6-5.9
	C40.1,236,41.6,235.8,42.4,235.8z"/>
<path id="06" d="M80.6,233.9c0.2,1.5,0.2,2.9-0.3,4.4c-0.8,2.4-2,4.4-3.6,6.2c-3,3.1-5.6,6.3-8.1,9.8l-2.3,2.9
	c-0.8,1.1-1.8,2.3-2.6,3.3c-1.8,1.8-3.8,2.1-6.1,1c-0.8-0.5-1.5-1.1-1.7-1.6s-0.2-1.1,0.2-2.1c0.7-1.8,1.5-3.7,2.5-5.5
	c3.8-7.2,5.6-14.8,5.3-22.9c-0.2-1.5,0.2-2.6,0.7-3.1c0.5-0.5,1.7-0.8,3.3-0.8c4.1-0.2,7.6,1.3,10.4,4.1
	C79.5,230.5,80.3,232.1,80.6,233.9z"/>
<path id="07" d="M140.4,288.6c-3.3,3.4-5.5,7.2-7.6,10.7c-4.5,7.6-7.9,15.9-11.4,24.1c-2.5,5.5-5.1,11.1-7.6,16.4
	c-1.3,2.9-3.1,5.5-5.1,8s-4.5,3.6-7.8,3.6c-6.1-0.2-11.4-2.3-15.9-6.3c-3.5-3.1-4.8-7.2-5.1-11.6c-0.5-6.5,0.8-12.9,2.2-19.2
	c2-8.3,4.5-16.4,6.8-24.6c1.7-6,3.3-12.2,5.1-18.2c1-3.6,1.5-3.9,5.1-4.1c7.1-0.2,12.9,4.2,14.6,11.1c1.3,5.9,0.8,11.9,0,17.7
	c-1.3,9.8-3.5,19.2-5.5,28.8c-0.2,0.8-0.5,1.8-0.2,3.3c2-3.1,3.6-5.7,5-8.5c4.8-8.8,9.4-17.7,14.1-26.7c3-5.7,6.5-11.1,10.6-16.1
	c0.5-0.8,1.2-1.5,1.8-2.1c4.1-5.2,9.8-5.5,15.6-3.7c7.6,2.4,10.9,8.1,11.3,15.6c0.3,6.8-0.3,13.3-1.5,19.9c-1.2,6-2.6,11.9-4.1,17.7
	c-0.2,0.8-0.7,1.5,0,2.4c0.8-0.8,1.3-1.8,2-2.8c7.6-13.2,15.7-26,22.7-39.7c1.3-2.8,3.1-5.2,4.5-8c2-4.2,5.6-5.2,9.9-4.9
	c8.9,1.1,13.9,5.9,14.6,14.5c0.3,5-0.2,9.9-1.5,14.6c-3.5,13.2-7,26.4-10.4,39.5c-0.5,2.1-1,4.4-1.3,6.5c-0.2,0.7-0.2,1.5,0,2.1
	c0.5,2.8,2.8,3.9,5.5,2.6c4.6-2.6,8.6-6,12.1-10.1c7.4-8.8,14.7-17.7,21.5-27.2c0.8-1.1,1.7-2.1,3.1-2.3c1.3,0,2.2,1,1.7,2.1
	c-0.3,1.1-0.8,2.1-1.5,3.1c-5.6,9.4-11.8,18.6-18.9,27c-3.5,4.1-7.3,7.6-11.9,10.4c-4.3,2.6-8.9,3.4-13.9,2.1
	c-5-1.3-9.4-3.6-13.2-6.8c-4-3.4-5.6-7.8-6-12.9c-0.3-6,0.7-12,2.2-17.9c1.8-7.5,4.3-14.8,6.8-22c0.8-2.6,1.5-5.2,2-7.8
	c-1.2,0.3-1.5,1.3-2.2,2.1c-4.3,6.7-8.4,13.7-11.9,21c-4.6,9.3-9.3,18.6-13.7,27.7c-1.3,2.8-3,5.2-5,7.3c-1.5,1.8-3.3,2.8-5.6,2.8
	c-6.1,0.3-11.6-1.5-16.1-5.4c-4-3.3-4.6-8-5-12.7c-0.2-3.4,0.3-6.8,0.8-10.3c1.8-10.1,4.5-19.9,7.9-29.5c0.3-0.8,0.5-1.8,0.8-2.6
	C140.6,289.5,140.6,289.4,140.4,288.6z"/>
<path id="08" d="M304.6,340.5c1.2-0.2,2-1.1,2.8-1.8c10.1-7.2,20.2-14.5,30.5-21.3c1.2-0.8,2.5-1.5,3.8-2.1s2.8-0.7,4.1,0
	c1.5,0.8,1.7,1.8,0.5,2.9c-1,1.1-2.2,2.1-3.5,2.9c-2.6,1.8-5.1,4.1-7.6,6c-9.8,7.3-19,15.1-28.5,22.8c-1.5,1.1-3,2.6-4.5,4.1
	c-1,0.8-1.3,2-1.8,3.1c-1.5,4.4-2,9-3.1,13.5c-2.6,11.6-5.3,23.1-9.8,34c-3,7.3-6.3,14.5-11.3,20.7c-4,4.9-8.6,9.3-15.1,11.1
	c-5,1.6-9.9,1.8-15.1,0c-5.1-1.6-7.1-4.2-7.4-9.4c-0.3-3.9,0.7-7.6,1.8-11.2c2.5-7,6.6-13,10.4-19.2c4.8-7.8,11.1-14.5,16.7-21.6
	c1.2-1.6,2-3.4,2.5-5.4c3-17.3,6.6-34.5,11.6-51.4c2.6-9.1,6-18.1,10.9-26.4c2.5-4.1,5.6-7.8,9.6-10.6c4.1-2.8,8.6-3.3,13.2-2.1
	c1.2,0.3,2.3,1,3.3,1.8c1.7,1.3,2,2.3,1,4.1c-8.1,16.8-11.1,35-15.2,52.9C304.5,338.5,304,339.3,304.6,340.5z M266.1,390.6
	c-2.3,3.1-4.6,5.9-6.8,8.8c-4.8,6.8-8.9,14-10.3,22.5c-0.3,1.8-0.3,3.6,0.2,5.4c0.3,1.1,0.3,2.8,1.7,2.9c1.3,0.3,2-1.1,2.8-2
	c2.8-3.4,4.5-7.5,6.1-11.6c3.1-7,4.5-14.5,6-21.8C265.9,393.5,266.4,392.4,266.1,390.6z M305,251c0.2-5.5,1.3-11.2,1.5-16.8
	c0-2.4,1.3-4.1,3.8-5c6.1-2.3,12.1-1.8,17.7,1.3c3.6,2.1,4.6,5,2.6,8.6c-1.3,2.6-3.1,4.9-4.5,7.3c-2.3,4.4-5.1,8.8-6,13.8
	c-0.3,1.3-1.3,2-2.6,2.1c-4.5,0.5-8.1-1-11.1-4.1C304.6,256.2,305.1,253.6,305,251z"/>
<path id="09" d="M334.9,337.2c-0.2-3.9,0.5-7.6,1.3-11.4c2.3-10.4,5.5-20.7,9.8-30.4c1.7-3.7,3.8-7,6.5-9.9
	c4.1-4.9,14.7-6.7,21.4-2.8c1.8,1.1,2.5,2.4,1.8,4.7c-0.3,1.5-1,2.8-1.7,4.2c-4.6,12-9.1,24.2-12.1,37.1c-1.5,6.7-2.5,13.3-2.2,20.3
	c0,1.5-0.3,3.4,1.5,4.2c1.5,0.8,2.8-0.7,4-1.5c5.1-3.3,8.9-8,12.9-12.5c4.8-5.5,9.4-11.4,13.7-17.2c1-1.1,1.8-2.3,3.3-2.4
	c1.5-0.2,2.2,0.7,1.7,2c-0.3,0.8-0.8,1.5-1.2,2.1c-6.3,9.4-12.9,18.7-20,27.7c-5,6.2-11.6,9.8-19.9,9.3c-3.6-0.2-7.1-1-10.4-2.6
	c-3.3-1.8-6-4.2-7.6-7.6C335.9,346.5,334.9,342.1,334.9,337.2z M377.3,235.8c5.1,0,9.1,1.5,12.6,4.2c3.5,2.6,4,5.4,1.3,9.1
	c-1.7,2.4-3.6,4.9-5.5,7.3c-1.8,2.6-3.6,5.2-5.3,7.8c-1,1.6-2.3,3.3-2.2,5.5c0.2,1.1-0.8,1.8-1.8,2c-1.5,0.2-3,0-4.3-0.3
	c-3-0.8-5.5-2.4-7.6-4.4c-1.8-1.8-2.5-3.9-2.2-6.3c0.5-3.9,1.5-7.6,2.5-11.6c0.8-2.4,1.5-4.7,2.2-7.2c0.8-3.4,3-5.5,6.6-5.9
	C375,236,376.5,235.8,377.3,235.8z"/>
<path id="10" d="M454.8,313c-2.5,4.1-4.8,7.8-7.1,11.6c-4.6,7.3-8.6,15-13.7,21.8c-2.3,2.9-4.5,5.9-7.3,8.3
	c-3.5,3.3-7.6,4.6-12.6,4.4c-6.1-0.3-11.4-2.3-16.1-6c-4.3-3.6-7.1-8.1-8.4-13.5c-1.7-6.3-1.3-12.7-0.5-19.2
	c1.2-10.1,4-19.9,7.4-29.5c2-5.2,4.6-10.1,7.4-14.8c3.6-5.9,9.9-8,16.4-5.4c0.7,0.2,1.3,0.5,2,0.8c5.1,2.8,6.3,5.2,5.3,10.9
	c-1,4.9-3,9.4-4.5,14.2c-3.6,10.9-6.3,22-8.4,33c-0.8,4.9-1.5,9.6-0.3,14.5c0.3,1.6,0.8,3.3,1.7,4.9c0.8,1.6,1.3,1.8,2.8,0.7
	c2.8-2.1,5.3-4.7,7.6-7.3c3.5-4.2,6.5-8.6,9.4-13.2c4.8-7.3,10.3-14.3,15.4-21.5c2.5-3.4,5.1-6.8,7.6-10.1c2.2-2.8,3.1-5.9,4.5-9
	c1.8-4.7,4.5-9.1,7.8-13c5.6-6.7,14.1-3.1,16.9,1.6c1,1.6,1.2,3.1,0.3,4.9c-1.7,3.7-3.1,7.5-4,11.4c-1,5.9-1.8,11.7-2.8,17.6
	c-1.2,7.3-1.8,14.6-3.1,21.8c0,0.5,0,0.8,0.2,1.3c0.8,0.2,1.2-0.5,1.7-1c9.4-7.6,19-15.1,29.1-22.1c0.8-0.5,1.7-1,2.6-1.5
	c1.2-0.5,2.2-0.3,3.1,0.5c1,0.8,1.2,1.6,0.2,2.6c-0.2,0.3-0.5,0.5-0.8,0.7c-9.9,8-19.7,16.3-29.3,24.6c-2.5,2.1-4.8,4.4-7.3,6.5
	c-1.2,1.1-1.7,2.6-2,4.1c-1.5,9-3.1,17.9-5.3,26.7c-1.5,6.2-3.3,12.4-5.3,18.6c-2,6.7-4.6,13.2-7.9,19.4
	c-5.1,9.1-11.1,17.4-20.4,22.8c-4,2.4-7.9,4.2-12.7,3.9c-3.1-0.2-6-1.3-8.3-3.3c-3.6-3.3-3.6-7.3-3.5-11.6c0-6,2.2-11.6,4.8-16.9
	c5.6-11.7,12.9-22.3,21.2-32.2c1.3-1.5,2.6-3.1,4-4.6c0.8-1.1,1.5-2.4,1.7-3.9c2-10.7,3.8-21.6,6-32.4c1.3-6.5,3.1-13.2,4.6-19.7
	C454.9,314.8,455.4,314.1,454.8,313z M441.5,382.3c-0.5,0.2-0.7,0.2-0.8,0.3c-6.5,8-12.1,16.4-16.7,25.5c-1.8,3.7-3.6,7.5-4.3,11.6
	c-0.7,4.2-1.2,8.5,0.5,12.5c0.8,1.8,1.5,2,3,0.7c4.3-3.7,7.6-8.1,9.8-13.3c4.5-11.4,6.6-23.4,8.8-35.3
	C441.9,383.6,442,382.9,441.5,382.3z"/>
<path id="11" d="M602.8,327.1c0-1.8,0-3.4,0.2-5.2c-2.2,0.7-4.5,1.1-6.8,1.5c-4.5,0.3-8.8,0-13.1-1h-0.2c-1-0.2-1.7-0.3-2.2-0.3
	c-0.5,0.2-0.8,0.3-1,0.7c-0.2,0.5-0.5,1.1-0.8,2.1c-1.2,3.3-2.6,6.3-4.3,9.4c-7.3,13-18.5,20-33.6,21c-4.1,0.3-8.3,0-12.4-1.1
	c-7-2-12.4-5.7-16.2-11.1c-3.8-5.4-5.8-10.7-5.8-16.3c-0.2-11.4,2.6-21.8,8.4-31.4c9.4-14.6,22.8-22.9,40.6-24.9
	c5.1-0.5,9.9,0.5,14.6,2.6c5.5,2.8,9.1,7.2,10.9,12.9c1.8,5,2.5,10.4,2.2,15.9c0.2,4.1-0.2,8.1-1.2,12.2c-0.2,1.1-0.2,1.8,0,2.1
	c0.2,0.5,0.8,0.8,1.8,1.3c5.1,2.1,10.6,2.6,16.1,1.5c1.2-0.2,2.3-0.3,3.3-0.5c1-6.3,3.3-12.4,6.8-18.1c7.9-12.5,19.4-19.5,34.3-21.2
	c4.5-0.5,8.6,0.3,12.6,2.1c4.6,2.4,7.6,6,9.1,11.1c1.5,4.4,2.2,8.8,2,13.5c0.2,3.4-0.2,6.8-1,10.3c-0.2,1-0.2,1.6,0,2
	c0.2,0.3,0.7,0.7,1.5,1c4.5,1.8,8.9,2.1,13.6,1.3c3.3-0.3,6.5-1.1,9.3-2.4c0.3-0.2,0.7-0.2,0.8-0.3c0.2,0,0.5,0,0.8,0
	c0.2,0,0.3,0.2,0.5,0.5c0.2,0.2,0.3,0.5,0.2,0.7c-0.2,0.2-0.3,0.5-0.5,0.7c-0.5,0.5-1.2,0.8-1.8,1.1h-0.2c-3.8,1.8-7.9,2.9-12.3,3.6
	c-3.8,0.3-7.4,0-11.1-0.8h-0.2c-0.8-0.2-1.3-0.2-1.7-0.2c-0.5,0-0.8,0.2-1,0.5c-0.2,0.3-0.5,1-0.8,1.8c-1,2.8-2.2,5.4-3.5,8
	c-6.1,11.2-15.7,17.1-28.6,17.9c-3.5,0.2-7.1-0.2-10.6-1c-6-1.6-10.6-4.7-13.7-9.3C604.4,336.6,602.8,331.8,602.8,327.1z
	 M572.3,285.8c-1.7-2.1-3.5-3.7-5.6-4.9l-0.7-0.3c-2.3-1.5-4.6-1.5-6.8,0c-3.8,2.6-7.1,5.5-9.9,8.9c-7.8,8.6-12.7,18.7-14.9,30.1
	c-1,4.9-1.2,9.8-0.3,14.6c0.8,5,3.1,9,7.3,11.9c2.3,1.6,5,2.1,7.8,1.6c5.8-1.5,10.4-4.2,14.2-8.5c4.5-5.2,7.8-11.1,9.9-17.6
	c0.5-1,0.7-1.6,0.5-2.1c-0.2-0.5-0.8-1-2-1.6c-2.8-1.8-5.3-3.7-7.4-6.2c-3.3-3.6-5-7.8-4.8-12.7c0.2-6.7,3.6-10.9,10.3-12.7
	c0.3-0.2,0.8-0.2,1.3-0.3C571.5,286,571.8,286,572.3,285.8z M575.9,311.5c0.5-1.3,0.8-2.6,1-3.9c0-0.5,0-0.8,0.2-1.3
	c0.5-3.7,0.7-7.6,0.5-11.6v-1c-0.2-1.1-0.5-2-1-2.8c-0.5-0.8-1.2-1.3-2-1.5c-1.7-0.3-3.1,0.5-4.6,2.3c-0.2,0.3-0.3,0.7-0.5,1
	c-1.5,3.1-1.5,6.5-0.2,10.3C570.5,306.8,572.8,309.6,575.9,311.5z M658.6,292.3c-1.5-1.8-3-3.3-4.6-4.2l-0.7-0.3
	c-1.8-1.1-3.8-1.1-5.8,0.2c-3.1,2.1-6,4.7-8.4,7.5c-6.6,7.3-10.8,15.9-12.6,25.5c-0.8,4.2-1,8.5-0.3,12.5c0.7,4.2,2.6,7.6,6.1,10.1
	c2,1.5,4.1,2,6.6,1.5c4.8-1.1,8.9-3.6,12.1-7.3c3.8-4.4,6.8-9.4,8.6-15c0.3-0.8,0.5-1.3,0.3-1.8c-0.2-0.3-0.8-0.8-1.7-1.3
	c-2.3-1.5-4.5-3.3-6.3-5.4c-2.8-2.9-4.3-6.5-4.1-10.7c0.2-5.7,3.1-9.1,8.6-10.6l1.3-0.3C657.9,292.5,658.2,292.5,658.6,292.3z
	 M661.7,314.1c0.5-1.1,0.7-2.3,0.8-3.4c0-0.3,0-0.7,0.2-1c0.5-3.3,0.7-6.5,0.5-9.8c-0.2-0.3-0.2-0.7-0.2-1c0-0.8-0.2-1.6-0.7-2.3
	c-0.5-0.7-1-1.1-1.7-1.3c-1.5-0.2-2.8,0.5-4,2c-0.2,0.3-0.3,0.7-0.5,1c-1.2,2.6-1.3,5.5-0.2,8.6C657.2,310,659.1,312.5,661.7,314.1z
	"/>
<path id="12" d="M708.7,324c5-6,9.4-12.2,13.6-18.4c6.6-10.1,13.9-19.7,21.9-28.8c2.3-2.8,5.1-5,8.3-7.2
	c8.6-5.7,21.5,0,22.5,10.6c0.3,4.4-0.5,8.6-1.3,12.9c-3.1,14.8-7.3,29.3-11.4,43.6c-1,3.4-1.7,6.7-1.7,10.1c0,3.7,1.8,5.5,5.6,4.7
	c3-0.5,5.8-1.8,8.4-3.6c5-3.6,9.3-8,13.2-12.5c5-5.9,9.9-11.7,15.1-17.6c0.8-1,1.5-2,2.6-2.4c1-0.3,1.8-0.3,2.6,0.3
	c0.7,0.8,0.2,1.5-0.3,2.3c0,0.2-0.2,0.3-0.3,0.5c-6.3,7.8-12.1,16.1-19,23.3c-4.8,4.9-9.8,9.9-16.1,13c-4.1,2.3-8.4,2.8-13.1,2
	c-12.7-2.4-20.2-11.6-22.2-23.3c-0.8-4.9,0-9.6,1.2-14.3c2.6-10.7,6.5-21,11.1-31.1c0.7-1.3,1.2-2.4,1.7-3.9c-1.5,0.8-2.3,2-3.3,3.1
	c-7.3,8.5-13.2,17.7-19.4,27c-5.8,8.8-11.8,17.4-17.7,26.2c-1.7,2.4-3.6,4.6-5.5,6.8c-2.3,3.1-5.6,4.2-9.4,3.4c-1-0.2-2-0.5-3-0.7
	c-8.1-2.4-11.6-7.3-11.3-15.5c0.2-6.8,2-13.3,4-19.9c3.1-10.3,6.8-20.5,9.3-30.9c1.2-4.7,2.2-9.4,3.1-14.2c0.8-3.4,1.7-4.1,5-4.2
	c5.8-0.2,13.2,4.4,13.9,11.4c0.7,5,0.7,10.3,0,15.3c-1.2,9.9-4.1,19.4-7.4,28.6c-0.3,0.8-0.5,1.8-0.8,2.6
	C708.6,323.4,708.7,323.5,708.7,324z"/>
</svg>
